<?xml version="1.0" encoding="utf-8"?>
<!-- Generator: Adobe Illustrator 26.0.3, SVG Export Plug-In . SVG Version: 6.00 Build 0)  -->
<svg version="1.0" id="Layer_1" xmlns="http://www.w3.org/2000/svg" xmlns:xlink="http://www.w3.org/1999/xlink" x="0px" y="0px"
	 viewBox="0 0 290 208" style="enable-background:new 0 0 290 208;" xml:space="preserve">
<path d="M70.3,90.6c0,7.2-3,9.5-8.6,9.5c-6.4,0-8.6-3.2-8.6-9.9V72.1h4.2V90c0,2.4-0.2,7,4.4,7c3.8,0,4.4-2.7,4.4-6.8v-18h4.2V90.6z
	"/>
<path d="M184.6,135.8l-8.3-23.8v23.8h-3.6v-27.6h6.2l8.3,23.8v-23.8h3.8v27.6H184.6z"/>
<path d="M87.7,99.7l-8.3-23.8v23.8h-3.6V72.1h6.2l8.3,23.8V72.1h3.8v27.6H87.7z"/>
<path d="M100.6,99.7V72.1h4.3v27.6H100.6z"/>
<path d="M191.4,99.7V72.1h4.3v27.6H191.4z"/>
<path d="M120.3,99.7h-5l-7-27.6h4.4l5.2,23.7l5.4-23.7h4.2L120.3,99.7z"/>
<path d="M130.9,99.7V72.1h13.7v3.3h-9.4v8.4h8.8V87h-8.8v9.4h9.7v3.3H130.9z"/>
<path d="M153.8,135.8v-27.6h13.6v3.3h-9.4v8.4h8.8v3.2h-8.8v9.4h9.7v3.3L153.8,135.8z"/>
<path d="M214.9,135.8v-27.6h13.6v3.3h-9.4v8.4h8.8v3.2h-8.8v9.4h9.7v3.3L214.9,135.8z"/>
<path d="M161.2,99.7c-0.3-2.4-0.4-4.8-0.4-7.2c-0.1-2.1-0.4-3.4-0.8-4s-1.7-1.1-3.5-1.1h-2.6v12.3h-4.3V72.1h7.9
	c4.6,0,7.9,1.1,7.9,7c0,3.7-1.5,5.9-4.5,6.7c1.3,0,2.5,0.6,3.2,1.6c0.7,1.4,1,2.9,0.9,4.4c0,2.6,0.2,5.3,0.6,7.9L161.2,99.7z
	 M161.1,79.4c0-3.2-1.7-4.1-4.4-4.1h-2.9v8.8h2.2C159.8,84.2,161.1,83.2,161.1,79.4z"/>
<path d="M186.2,92.7c0,4.9-2.7,7.4-8.1,7.4c-6.1,0-8.2-2.4-8.2-8.2v-0.3h4.4V92c0,3.3,0.8,5.1,3.8,5.1c2.5,0,3.8-1.3,3.8-3.9
	c0-1.8-1-3.4-2.6-4.2c-0.6-0.4-1.4-0.9-2.3-1.4c-4.1-2.5-6.6-4.2-6.6-8.6s2.8-7.2,8.1-7.2c5,0,7.5,2.3,7.5,6.9v1h-4.3v-0.7
	c0-2.7-1.2-4-3.5-4c-2.1,0-3.5,1.2-3.5,3.7c0,2.7,1.9,3.6,3.8,4.8c0.6,0.4,1.3,0.8,2,1.2C184.7,87.3,186.2,88.5,186.2,92.7z"/>
<path d="M209.9,75.4v24.3h-4.3V75.4h-6.4v-3.3h17v3.3H209.9z"/>
<path d="M111,111.6v24.3h-4.3v-24.3h-6.4v-3.3h17v3.3H111z"/>
<path d="M205.1,111.6v24.3h-4.3v-24.3h-6.4v-3.3h17v3.3H205.1z"/>
<path d="M144.3,135.8h-5l-4.3-23.1l-4.8,23.1h-5l-5.9-27.6h4.5l4.1,23l4.7-23h5l4.3,23l4.4-23h4L144.3,135.8z"/>
<path d="M236.9,134.2c0,1.2-1,2.2-2.2,2.2c-1.2,0-2.2-1-2.2-2.2c0-1.2,1-2.2,2.2-2.2l0,0C235.9,131.9,236.9,132.9,236.9,134.2z"/>
<path d="M228.6,89.2v10.5h-4.3V89.2l-7.2-17h4.7l4.9,13.2l5.1-13.2h4.4L228.6,89.2z"/>
<path d="M70.7,122.3c0,5-0.4,8.3-1.3,10.1c-1.2,2.6-3.8,3.9-7.7,3.9c-3.7,0-6.1-1.3-7.4-3.8c-0.6-1.3-0.9-2.7-1.1-4.2
	c-0.2-2-0.3-4-0.2-6.1c-0.1-2.4,0.1-4.8,0.3-7.2c0.2-1.8,0.9-3.5,2-4.9c1.4-1.7,3.6-2.5,6.5-2.5s5.1,0.8,6.5,2.3
	c1.1,1.4,1.8,3.1,2,4.9C70.7,117.3,70.8,119.8,70.7,122.3z M66.3,121.8c0.1-2.3-0.1-4.6-0.3-6.9c-0.5-2.7-1.9-4-4.1-4
	c-2.2,0-3.6,1.4-4.2,4.2c-0.1,0.8-0.2,1.6-0.2,2.4c0,1.1-0.1,2.6-0.1,4.3s0,3,0.1,4.2c0,0.9,0.1,1.7,0.2,2.6
	c0.1,1.2,0.5,2.4,1.2,3.4c0.8,0.8,1.9,1.3,3,1.2c2.3,0,3.6-1.4,4.1-4.3c0.1-0.9,0.2-1.7,0.2-2.6C66.3,125.1,66.3,123.6,66.3,121.8z"
	/>
<path d="M80.4,111.5v8.5h8.2v3.2h-8.2v12.6h-4.2v-27.6H89v3.3H80.4z"/>
</svg>
