<?xml version="1.0" encoding="UTF-8" standalone="no"?>
<!-- Created with Inkscape (http://www.inkscape.org/) -->

<svg
   id="svg2985"
   version="1.1"
   inkscape:version="1.1.2 (0a00cf5339, 2022-02-04)"
   width="344"
   height="369.13071"
   xml:space="preserve"
   sodipodi:docname="medialaan_logo.svg"
   xmlns:inkscape="http://www.inkscape.org/namespaces/inkscape"
   xmlns:sodipodi="http://sodipodi.sourceforge.net/DTD/sodipodi-0.dtd"
   xmlns="http://www.w3.org/2000/svg"
   xmlns:svg="http://www.w3.org/2000/svg"
   xmlns:rdf="http://www.w3.org/1999/02/22-rdf-syntax-ns#"
   xmlns:cc="http://creativecommons.org/ns#"
   xmlns:dc="http://purl.org/dc/elements/1.1/"><metadata
     id="metadata2991"><rdf:RDF><cc:Work
         rdf:about=""><dc:format>image/svg+xml</dc:format><dc:type
           rdf:resource="http://purl.org/dc/dcmitype/StillImage" /></cc:Work></rdf:RDF></metadata><defs
     id="defs2989"><clipPath
       clipPathUnits="userSpaceOnUse"
       id="clipPath3001"><path
         d="M 0,0 H 850.394 V 850.394 H 0 Z"
         id="path3003"
         inkscape:connector-curvature="0" /></clipPath><clipPath
       clipPathUnits="userSpaceOnUse"
       id="clipPath3099"><path
         d="m 45.355,725.779 h 90.776 v 79.26 H 45.355 Z"
         id="path3101"
         inkscape:connector-curvature="0" /></clipPath><clipPath
       clipPathUnits="userSpaceOnUse"
       id="clipPath88"><rect
         style="fill:#0000ff;fill-rule:evenodd;stroke-width:0.1602"
         id="rect90"
         width="61.121296"
         height="59.376579"
         x="-25.136431"
         y="-759.99445"
         transform="scale(1,-1)" /></clipPath><clipPath
       clipPathUnits="userSpaceOnUse"
       id="clipPath92"><rect
         style="fill:#0000ff;fill-rule:evenodd;stroke-width:0.159037"
         id="rect94"
         width="60.677685"
         height="58.945629"
         x="-42.22673"
         y="-26.887932"
         transform="scale(1,-1)" /></clipPath><clipPath
       clipPathUnits="userSpaceOnUse"
       id="clipPath96"><rect
         style="fill:#0000ff;fill-rule:evenodd;stroke-width:0.159037"
         id="rect98"
         width="60.677685"
         height="58.945629"
         x="-40.300331"
         y="-21.149527"
         transform="scale(1,-1)" /></clipPath><clipPath
       clipPathUnits="userSpaceOnUse"
       id="clipPath100"><rect
         style="fill:#0000ff;fill-rule:evenodd;stroke-width:0.159037"
         id="rect102"
         width="60.677685"
         height="58.945629"
         x="-11.418227"
         y="-29.975531"
         transform="scale(1,-1)" /></clipPath><clipPath
       clipPathUnits="userSpaceOnUse"
       id="clipPath104"><rect
         style="fill:#0000ff;fill-rule:evenodd;stroke-width:0.159037"
         id="rect106"
         width="60.677685"
         height="58.945629"
         x="-13.390628"
         y="-36.399731"
         transform="scale(1,-1)" /></clipPath><clipPath
       clipPathUnits="userSpaceOnUse"
       id="clipPath108"><rect
         style="fill:#0000ff;fill-rule:evenodd;stroke-width:0.159037"
         id="rect110"
         width="60.677685"
         height="58.945629"
         x="-17.006632"
         y="-40.631931"
         transform="scale(1,-1)" /></clipPath><clipPath
       clipPathUnits="userSpaceOnUse"
       id="clipPath112"><rect
         style="fill:#0000ff;fill-rule:evenodd;stroke-width:0.159037"
         id="rect114"
         width="60.677685"
         height="58.945629"
         x="-22.26663"
         y="-43.499329"
         transform="scale(1,-1)" /></clipPath><clipPath
       clipPathUnits="userSpaceOnUse"
       id="clipPath116"><rect
         style="fill:#0000ff;fill-rule:evenodd;stroke-width:0.159037"
         id="rect118"
         width="60.677685"
         height="58.945629"
         x="-28.458027"
         y="-44.086327"
         transform="scale(1,-1)" /></clipPath><clipPath
       clipPathUnits="userSpaceOnUse"
       id="clipPath120"><rect
         style="fill:#0000ff;fill-rule:evenodd;stroke-width:0.159037"
         id="rect122"
         width="60.677685"
         height="58.945629"
         x="-35.139729"
         y="-41.766731"
         transform="scale(1,-1)" /></clipPath><clipPath
       clipPathUnits="userSpaceOnUse"
       id="clipPath124"><rect
         style="fill:#0000ff;fill-rule:evenodd;stroke-width:0.159037"
         id="rect126"
         width="60.677685"
         height="58.945629"
         x="-38.601631"
         y="-38.72163"
         transform="scale(1,-1)" /></clipPath><clipPath
       clipPathUnits="userSpaceOnUse"
       id="clipPath128"><rect
         style="fill:#0000ff;fill-rule:evenodd;stroke-width:0.159037"
         id="rect130"
         width="60.677685"
         height="58.945629"
         x="-41.343731"
         y="-34.013428"
         transform="scale(1,-1)" /></clipPath><clipPath
       clipPathUnits="userSpaceOnUse"
       id="clipPath132"><rect
         style="fill:#0000ff;fill-rule:evenodd;stroke-width:0.159037"
         id="rect134"
         width="60.677685"
         height="58.945629"
         x="-36.71833"
         y="-16.771027"
         transform="scale(1,-1)" /></clipPath><clipPath
       clipPathUnits="userSpaceOnUse"
       id="clipPath136"><rect
         style="fill:#0000ff;fill-rule:evenodd;stroke-width:0.159037"
         id="rect138"
         width="60.677685"
         height="58.945629"
         x="-32.213631"
         y="-14.195332"
         transform="scale(1,-1)" /></clipPath><clipPath
       clipPathUnits="userSpaceOnUse"
       id="clipPath140"><rect
         style="fill:#0000ff;fill-rule:evenodd;stroke-width:0.159037"
         id="rect142"
         width="60.677685"
         height="58.945629"
         x="-15.439528"
         y="-18.175726"
         transform="scale(1,-1)" /></clipPath><clipPath
       clipPathUnits="userSpaceOnUse"
       id="clipPath144"><rect
         style="fill:#0000ff;fill-rule:evenodd;stroke-width:0.159037"
         id="rect146"
         width="60.677685"
         height="58.945629"
         x="-18.30183"
         y="-15.80413"
         transform="scale(1,-1)" /></clipPath><clipPath
       clipPathUnits="userSpaceOnUse"
       id="clipPath148"><rect
         style="fill:#0000ff;fill-rule:evenodd;stroke-width:0.159037"
         id="rect150"
         width="60.677685"
         height="58.945629"
         x="-25.69623"
         y="-0.35793287"
         transform="scale(1,-1)" /></clipPath><clipPath
       clipPathUnits="userSpaceOnUse"
       id="clipPath152"><rect
         style="fill:#0000ff;fill-rule:evenodd;stroke-width:0.159037"
         id="rect154"
         width="60.677685"
         height="58.945629"
         x="-11.94603"
         y="-24.315928"
         transform="scale(1,-1)" /></clipPath></defs><sodipodi:namedview
     pagecolor="#ffffff"
     bordercolor="#666666"
     borderopacity="1"
     objecttolerance="10"
     gridtolerance="10"
     guidetolerance="10"
     inkscape:pageopacity="0"
     inkscape:pageshadow="2"
     inkscape:window-width="2560"
     inkscape:window-height="1316"
     id="namedview2987"
     showgrid="false"
     fit-margin-left="0.5"
     fit-margin-bottom="0.5"
     fit-margin-top="0.5"
     fit-margin-right="0.5"
     inkscape:zoom="0.50837168"
     inkscape:cx="2.9505971"
     inkscape:cy="-324.56568"
     inkscape:window-x="0"
     inkscape:window-y="0"
     inkscape:window-maximized="1"
     inkscape:current-layer="g2993"
     inkscape:pagecheckerboard="0"><inkscape:grid
       type="xygrid"
       id="grid3140"
       empspacing="5"
       visible="true"
       enabled="true"
       snapvisiblegridlinesonly="true" /></sodipodi:namedview><g
     id="g2993"
     inkscape:groupmode="layer"
     inkscape:label="90b7c55bba3c2bbd9bd1e4062242f6d2de7b81ea"
     transform="matrix(1.25,0,0,-1.25,-200.17919,1266.0104)"><g
       id="g3023"
       transform="matrix(5.0302765,0,0,5.0302765,214.50716,891.89296)"
       style="fill:#ce147f;fill-opacity:1"
       clip-path="url(#clipPath152)"><path
         inkscape:connector-curvature="0"
         d="M 0,0 -9.328,4.127 -7.693,7.821 1.634,3.694 Z"
         style="fill:#ce147f;fill-opacity:1;fill-rule:nonzero;stroke:none"
         id="path3025" /></g><g
       id="g3027"
       transform="matrix(5.0302765,0,0,5.0302765,283.67447,1012.4083)"
       style="fill:#7b6fb1;fill-opacity:1"
       clip-path="url(#clipPath148)"><path
         inkscape:connector-curvature="0"
         d="m 0,0 -0.422,-12.935 4.037,-0.132 0.422,12.936 z"
         style="fill:#7b6fb1;fill-opacity:1;fill-rule:nonzero;stroke:none"
         id="path3029" /></g><g
       id="g3031"
       transform="matrix(5.0302765,0,0,5.0302765,246.4786,934.70966)"
       style="fill:#944c98;fill-opacity:1"
       clip-path="url(#clipPath144)"><path
         inkscape:connector-curvature="0"
         d="M 0,0 -3.023,6.445 0.998,8.331 4.021,1.886 Z"
         style="fill:#944c98;fill-opacity:1;fill-rule:nonzero;stroke:none"
         id="path3033" /></g><g
       id="g3035"
       transform="matrix(5.0302765,0,0,5.0302765,232.08042,922.77987)"
       style="fill:#ba348d;fill-opacity:1"
       clip-path="url(#clipPath140)"><path
         inkscape:connector-curvature="0"
         d="M 0,0 -10.945,11.414 -9.591,12.712 1.354,1.299 Z"
         style="fill:#ba348d;fill-opacity:1;fill-rule:nonzero;stroke:none"
         id="path3037" /></g><g
       id="g3039"
       transform="matrix(5.0302765,0,0,5.0302765,316.4588,942.80236)"
       style="fill:#1273b8;fill-opacity:1"
       clip-path="url(#clipPath136)"><path
         inkscape:connector-curvature="0"
         d="M 0,0 4.111,9.246 5.825,8.483 1.714,-0.762 Z"
         style="fill:#1273b8;fill-opacity:1;fill-rule:nonzero;stroke:none"
         id="path3041" /></g><g
       id="g3043"
       transform="matrix(5.0302765,0,0,5.0302765,339.11868,929.8459)"
       style="fill:#1f8dcc;fill-opacity:1"
       clip-path="url(#clipPath132)"><path
         inkscape:connector-curvature="0"
         d="M 0,0 10.946,10.919 12.973,8.888 2.026,-2.031 Z"
         style="fill:#1f8dcc;fill-opacity:1;fill-rule:nonzero;stroke:none"
         id="path3045" /></g><g
       id="g3047"
       transform="matrix(5.0302765,0,0,5.0302765,362.38572,843.11186)"
       style="fill:#16a5b6;fill-opacity:1"
       clip-path="url(#clipPath128)"><path
         inkscape:connector-curvature="0"
         d="m 0,0 12.92,-6.046 -1.161,-2.478 -12.92,6.046 z"
         style="fill:#16a5b6;fill-opacity:1;fill-rule:nonzero;stroke:none"
         id="path3049" /></g><g
       id="g3051"
       transform="matrix(5.0302765,0,0,5.0302765,348.5922,819.4283)"
       style="fill:#13af9a;fill-opacity:1"
       clip-path="url(#clipPath124)"><path
         inkscape:connector-curvature="0"
         d="M 0,0 7.153,-6.986 5.605,-8.572 -1.548,-1.585 Z"
         style="fill:#13af9a;fill-opacity:1;fill-rule:nonzero;stroke:none"
         id="path3053" /></g><g
       id="g3055"
       transform="matrix(5.0302765,0,0,5.0302765,331.17788,804.1106)"
       style="fill:#30ad69;fill-opacity:1"
       clip-path="url(#clipPath120)"><path
         inkscape:connector-curvature="0"
         d="M 0,0 4.042,-8.636 0.32,-10.378 -3.722,-1.742 Z"
         style="fill:#30ad69;fill-opacity:1;fill-rule:nonzero;stroke:none"
         id="path3057" /></g><g
       id="g3059"
       transform="matrix(5.0302765,0,0,5.0302765,297.56707,792.44238)"
       style="fill:#75ba43;fill-opacity:1"
       clip-path="url(#clipPath116)"><path
         inkscape:connector-curvature="0"
         d="m 0,0 0.24,-14.771 -2.916,-0.047 -0.238,14.771 z"
         style="fill:#75ba43;fill-opacity:1;fill-rule:nonzero;stroke:none"
         id="path3061" /></g><g
       id="g3063"
       transform="matrix(5.0302765,0,0,5.0302765,266.42264,795.39516)"
       style="fill:#f9b234;fill-opacity:1"
       clip-path="url(#clipPath112)"><path
         inkscape:connector-curvature="0"
         d="m 0,0 -2.88,-6.969 -2.778,1.149 2.881,6.968 z"
         style="fill:#f9b234;fill-opacity:1;fill-rule:nonzero;stroke:none"
         id="path3065" /></g><g
       id="g3067"
       transform="matrix(5.0302765,0,0,5.0302765,239.96339,809.81896)"
       style="fill:#f28921;fill-opacity:1"
       clip-path="url(#clipPath108)"><path
         inkscape:connector-curvature="0"
         d="m 0,0 -11.802,-11.84 -2.129,2.122 11.803,11.84 z"
         style="fill:#f28921;fill-opacity:1;fill-rule:nonzero;stroke:none"
         id="path3069" /></g><g
       id="g3071"
       transform="matrix(5.0302765,0,0,5.0302765,221.77389,831.1081)"
       style="fill:#ea312c;fill-opacity:1"
       clip-path="url(#clipPath104)"><path
         inkscape:connector-curvature="0"
         d="m 0,0 -6.867,-3.001 -1.348,3.086 6.868,3 z"
         style="fill:#ea312c;fill-opacity:1;fill-rule:nonzero;stroke:none"
         id="path3073" /></g><g
       id="g3075"
       transform="matrix(5.0302765,0,0,5.0302765,211.85217,863.42359)"
       style="fill:#d81d4a;fill-opacity:1"
       clip-path="url(#clipPath100)"><path
         inkscape:connector-curvature="0"
         d="M 0,0 -10.172,-0.137 -10.2,1.904 -0.028,2.042 Z"
         style="fill:#d81d4a;fill-opacity:1;fill-rule:nonzero;stroke:none"
         id="path3077" /></g><g
       id="g3079"
       transform="matrix(5.0302765,0,0,5.0302765,357.13713,907.82083)"
       style="fill:#5ac7ee;fill-opacity:1"
       clip-path="url(#clipPath96)"><path
         inkscape:connector-curvature="0"
         d="M 0,0 9.343,3.768 10.801,0.152 1.459,-3.616 Z"
         style="fill:#5ac7ee;fill-opacity:1;fill-rule:nonzero;stroke:none"
         id="path3081" /></g><g
       id="g3083"
       transform="matrix(5.0302765,0,0,5.0302765,366.82745,878.95507)"
       style="fill:#1273b8;fill-opacity:1"
       clip-path="url(#clipPath92)"><path
         inkscape:connector-curvature="0"
         d="M 0,0 7.511,-0.297 7.318,-5.15 -0.193,-4.852 Z"
         style="fill:#1273b8;fill-opacity:1;fill-rule:nonzero;stroke:none"
         id="path3085" /></g><g
       id="g3176"
       transform="matrix(4.9937673,0,0,4.9937673,279.94081,-2781.0266)"
       style="fill:#727071;fill-opacity:1"
       clip-path="url(#clipPath88)"><g
         style="fill:#727071;fill-opacity:1"
         transform="translate(50.5656,729.5589)"
         id="g3087"><path
           id="path3089"
           style="fill:#727071;fill-opacity:1;fill-rule:nonzero;stroke:none"
           d="M 0,0 -4.516,6.753 -4.78,6.724 -5.211,-3.586 h 1.709 l 0.111,6.115 3.238,-4.876 H 0.056 L 3.265,2.515 3.403,-3.586 H 5.112 L 4.681,6.724 4.403,6.753 Z"
           inkscape:connector-curvature="0" /></g><g
         style="fill:#727071;fill-opacity:1"
         transform="translate(59.1525,736.1595)"
         id="g3091"><path
           id="path3093"
           style="fill:#727071;fill-opacity:1;fill-rule:nonzero;stroke:none"
           d="m 0,0 v -10.186 h 6.209 v 1.584 H 1.735 v 2.821 h 4.043 v 1.528 H 1.735 v 2.667 H 6.209 V 0 Z"
           inkscape:connector-curvature="0" /></g><g
         style="fill:#727071;fill-opacity:1"
         id="g3095"><g
           style="fill:#727071;fill-opacity:1"
           clip-path="url(#clipPath3099)"
           id="g3097"><g
             style="fill:#727071;fill-opacity:1"
             transform="translate(75.7818,731.1566)"
             id="g3103"><path
               id="path3105"
               style="fill:#727071;fill-opacity:1;fill-rule:nonzero;stroke:none"
               d="M 0,0 C 0,0.529 -0.084,1.01 -0.25,1.444 -0.416,1.88 -0.668,2.252 -1,2.564 c -0.333,0.31 -0.745,0.55 -1.237,0.722 -0.49,0.17 -1.06,0.257 -1.708,0.257 -0.511,0 -0.946,-0.027 -1.306,-0.083 v -7.101 c 0.213,-0.037 0.426,-0.06 0.638,-0.07 0.214,-0.008 0.486,-0.012 0.82,-0.012 0.658,0 1.222,0.091 1.695,0.277 0.474,0.185 0.866,0.444 1.181,0.778 0.315,0.333 0.547,0.727 0.695,1.182 C -0.075,-1.033 0,-0.537 0,0 M 1.863,0 C 1.863,-0.714 1.741,-1.389 1.502,-2.029 1.259,-2.668 0.896,-3.226 0.41,-3.703 -0.076,-4.18 -0.69,-4.56 -1.432,-4.842 c -0.74,-0.284 -1.615,-0.424 -2.625,-0.424 -0.278,0 -0.54,0.006 -0.785,0.013 -0.245,0.01 -0.483,0.022 -0.715,0.036 -0.232,0.014 -0.463,0.029 -0.695,0.049 -0.233,0.018 -0.476,0.04 -0.737,0.069 V 4.904 c 0.501,0.056 0.971,0.099 1.411,0.126 0.44,0.028 0.915,0.041 1.424,0.041 1.01,0 1.89,-0.133 2.639,-0.402 C -0.764,4.4 -0.138,4.034 0.361,3.57 0.862,3.106 1.237,2.568 1.486,1.951 1.737,1.336 1.863,0.686 1.863,0"
               inkscape:connector-curvature="0" /></g><path
             id="path3107"
             style="fill:#727071;fill-opacity:1;fill-rule:nonzero;stroke:none"
             d="m 80.639,736.159 h 1.737 v -10.186 h -1.737 z"
             inkscape:connector-curvature="0" /><g
             style="fill:#727071;fill-opacity:1"
             transform="translate(89.6965,733.087)"
             id="g3109"><path
               id="path3111"
               style="fill:#727071;fill-opacity:1;fill-rule:nonzero;stroke:none"
               d="m 0,0 -1.445,-3.403 h 2.89 z M 3.002,-7.113 2.016,-4.779 H -2.015 L -3.001,-7.113 H -4.792 L -0.097,3.211 H 0.154 L 4.836,-7.113 Z"
               inkscape:connector-curvature="0" /></g><g
             style="fill:#727071;fill-opacity:1"
             transform="translate(96.749,725.9735)"
             id="g3113"><path
               id="path3115"
               style="fill:#727071;fill-opacity:1;fill-rule:nonzero;stroke:none"
               d="M 0,0 V 10.186 H 1.737 V 1.584 H 6.212 V 0 Z"
               inkscape:connector-curvature="0" /></g><g
             style="fill:#727071;fill-opacity:1"
             transform="translate(109.5922,733.087)"
             id="g3117"><path
               id="path3119"
               style="fill:#727071;fill-opacity:1;fill-rule:nonzero;stroke:none"
               d="m 0,0 -1.444,-3.403 h 2.89 z M 3.002,-7.113 2.015,-4.779 H -2.013 L -3,-7.113 h -1.793 l 4.697,10.324 h 0.25 L 4.835,-7.113 Z"
               inkscape:connector-curvature="0" /></g><g
             style="fill:#727071;fill-opacity:1"
             transform="translate(120.5274,733.087)"
             id="g3121"><path
               id="path3123"
               style="fill:#727071;fill-opacity:1;fill-rule:nonzero;stroke:none"
               d="m 0,0 -1.445,-3.403 h 2.89 z M 3.002,-7.113 2.014,-4.779 H -2.015 L -3,-7.113 H -4.793 L -0.098,3.211 H 0.154 L 4.835,-7.113 Z"
               inkscape:connector-curvature="0" /></g><g
             style="fill:#727071;fill-opacity:1"
             transform="translate(135.9362,725.7792)"
             id="g3125"><path
               id="path3127"
               style="fill:#727071;fill-opacity:1;fill-rule:nonzero;stroke:none"
               d="M 0,0 -6.378,6.726 V 0.194 h -1.737 v 10.324 l 0.278,0.056 6.295,-6.628 V 10.38 H 0.194 V 0.041 Z"
               inkscape:connector-curvature="0" /></g></g></g></g></g></svg>
