<?xml version="1.0" encoding="UTF-8" standalone="no"?>
<svg
   version="1.1"
   width="414.60364pt"
   height="414.77771pt"
   viewBox="0 0 414.60365 414.77771"
   id="svg363"
   sodipodi:docname="sts_italia_logo.svg"
   inkscape:version="1.1.2 (0a00cf5339, 2022-02-04)"
   xmlns:inkscape="http://www.inkscape.org/namespaces/inkscape"
   xmlns:sodipodi="http://sodipodi.sourceforge.net/DTD/sodipodi-0.dtd"
   xmlns="http://www.w3.org/2000/svg"
   xmlns:svg="http://www.w3.org/2000/svg">
  <sodipodi:namedview
     id="namedview365"
     pagecolor="#ffffff"
     bordercolor="#666666"
     borderopacity="1.0"
     inkscape:pageshadow="2"
     inkscape:pageopacity="0.0"
     inkscape:pagecheckerboard="0"
     inkscape:document-units="pt"
     showgrid="false"
     height="414.77771pt"
     inkscape:zoom="2.0211508"
     inkscape:cx="276.32773"
     inkscape:cy="256.28964"
     inkscape:window-width="2560"
     inkscape:window-height="1316"
     inkscape:window-x="0"
     inkscape:window-y="0"
     inkscape:window-maximized="1"
     inkscape:current-layer="svg363" />
  <defs
     id="defs5">
    <clipPath
       id="clip_0">
      <path
         transform="matrix(1,0,0,-1,-215.1573,446.4638)"
         d="M 0,0 H 841 V 595 H 0 Z"
         id="path2" />
    </clipPath>
  </defs>
  <g
     clip-path="url(#clip_0)"
     id="g361"
     transform="translate(1.5596324,105.84883)">
    <path
       transform="matrix(1,0,0,-1,-215.1573,446.4638)"
       d="m 410.3755,256.5225 c -3.766,0 -7.567,0.32 -11.324,0.886 l -0.926,15.251 c -3.347,-0.913 -8.522,-1.827 -15.523,-1.827 -14.917,0 -20.092,10.35 -20.092,28.616 v 62.588 c 6.833,-15.847 23.071,-29.053 49.531,-38.482 27.062,-9.99 37.47,-19.567 37.47,-37.054 0,-16.656 -12.489,-29.978 -39.136,-29.978 m -74.046,142.776 h -22.831 v -20.396 h 22.831 v -49.008 c -8.67,7.982 -20.592,14.518 -35.704,20.274 -26.232,9.993 -38.306,17.488 -38.306,34.143 0,14.989 12.074,27.479 33.727,27.479 18.02,0 32.187,-6.163 40.283,-11.081 z"
       fill="#ee9431"
       id="path7" />
    <path
       transform="matrix(1,0,0,-1,-215.1573,446.4638)"
       d="m 428.4404,288.5791 c 0,-6.676 -7.54,-12.087 -16.84,-12.087 -9.3,0 -16.841,5.411 -16.841,12.087 0,6.675 7.541,12.086 16.841,12.086 9.3,0 16.84,-5.411 16.84,-12.086"
       fill="#ffffff"
       id="path9" />
    <path
       transform="matrix(1,0,0,-1,-215.1573,446.4638)"
       d="m 323.8701,380.6255 c 0,-6.675 -7.539,-12.086 -16.84,-12.086 -9.301,0 -16.84,5.411 -16.84,12.086 0,6.675 7.539,12.086 16.84,12.086 9.301,0 16.84,-5.411 16.84,-12.086"
       fill="#ffffff"
       id="path11" />
    <path
       transform="matrix(1,0,0,-1,-215.1573,446.4638)"
       d="m 495.61,282.079 h 5.742 V 250.5 h -5.742 z m 6.395,8.874 c 0.065,-1.958 -1.37,-3.523 -3.654,-3.523 -2.023,0 -3.458,1.565 -3.458,3.523 0,2.023 1.501,3.589 3.588,3.589 2.154,0 3.524,-1.566 3.524,-3.589"
       fill="#266ab0"
       id="path13" />
    <path
       transform="matrix(1,0,0,-1,-215.1573,446.4638)"
       d="m 514.5322,291.1484 v -9.069 h 8.222 v -4.371 h -8.222 v -17.03 c 0,-3.915 1.109,-6.133 4.307,-6.133 1.501,0 2.61,0.196 3.327,0.391 l 0.262,-4.307 c -1.11,-0.456 -2.872,-0.782 -5.09,-0.782 -2.675,0 -4.828,0.849 -6.199,2.414 -1.63,1.697 -2.217,4.502 -2.217,8.222 v 17.225 h -4.894 v 4.371 h 4.894 v 7.568 z"
       fill="#266ab0"
       id="path15" />
    <path
       transform="matrix(1,0,0,-1,-215.1573,446.4638)"
       d="m 542.5898,266.6162 c -6.264,0.131 -13.376,-0.979 -13.376,-7.112 0,-3.719 2.48,-5.481 5.415,-5.481 4.111,0 6.721,2.611 7.634,5.284 0.196,0.588 0.327,1.241 0.327,1.829 z m 0.848,-16.116 -0.457,3.979 h -0.196 c -1.761,-2.478 -5.154,-4.697 -9.656,-4.697 -6.394,0 -9.657,4.502 -9.657,9.069 0,7.634 6.786,11.81 18.987,11.744 v 0.654 c 0,2.609 -0.718,7.306 -7.178,7.306 -2.935,0 -6.002,-0.913 -8.22,-2.348 l -1.305,3.784 c 2.609,1.697 6.395,2.806 10.374,2.806 9.656,0 12.006,-6.59 12.006,-12.919 v -11.81 c 0,-2.74 0.13,-5.415 0.521,-7.568 z"
       fill="#266ab0"
       id="path17" />
    <path
       transform="matrix(1,0,0,-1,-215.1573,446.4638)"
       d="m 554.139,250.5 h 5.742 v 46.325 h -5.742 z"
       fill="#266ab0"
       id="path19" />
    <path
       transform="matrix(1,0,0,-1,-215.1573,446.4638)"
       d="m 566.274,282.079 h 5.742 V 250.5 h -5.742 z m 6.395,8.874 c 0.065,-1.958 -1.37,-3.523 -3.654,-3.523 -2.023,0 -3.458,1.565 -3.458,3.523 0,2.023 1.501,3.589 3.589,3.589 2.153,0 3.523,-1.566 3.523,-3.589"
       fill="#266ab0"
       id="path21" />
    <path
       transform="matrix(1,0,0,-1,-215.1573,446.4638)"
       d="m 594.918,266.6162 c -6.264,0.131 -13.375,-0.979 -13.375,-7.112 0,-3.719 2.479,-5.481 5.415,-5.481 4.111,0 6.721,2.611 7.634,5.284 0.196,0.588 0.326,1.241 0.326,1.829 z m 0.849,-16.116 -0.457,3.979 h -0.196 c -1.761,-2.478 -5.154,-4.697 -9.656,-4.697 -6.394,0 -9.657,4.502 -9.657,9.069 0,7.634 6.786,11.81 18.987,11.744 v 0.654 c 0,2.609 -0.718,7.306 -7.177,7.306 -2.936,0 -6.003,-0.913 -8.221,-2.348 l -1.305,3.784 c 2.609,1.697 6.394,2.806 10.374,2.806 9.656,0 12.006,-6.59 12.006,-12.919 v -11.81 c 0,-2.74 0.13,-5.415 0.521,-7.568 z"
       fill="#266ab0"
       id="path23" />
    <path
       transform="matrix(1,0,0,-1,-215.1573,446.4638)"
       d="m 230.6787,271.0078 c 10.823,-7.077 29.975,-14.572 48.297,-14.572 26.647,0 39.137,13.324 39.137,29.979 0,17.486 -10.409,27.063 -37.472,37.055 -36.222,12.908 -53.293,32.893 -53.293,57.041 0,32.477 26.228,59.124 69.532,59.124 20.4,0 38.303,-5.83 49.545,-12.492 l -9.158,-26.647 c -7.913,4.997 -22.485,11.659 -41.22,11.659 -21.653,0 -33.727,-12.49 -33.727,-27.479 0,-16.655 12.074,-24.15 38.306,-34.143 34.975,-13.323 52.876,-30.809 52.876,-60.788 0,-35.39 -27.479,-60.373 -75.359,-60.373 -22.068,0 -42.47,5.413 -56.625,13.74 z"
       fill="#266ab0"
       id="path25" />
    <path
       transform="matrix(1,0,0,-1,-215.1573,446.4638)"
       d="m 223.6245,243.9189 c 14.483,-8.145 34.252,-12.797 54.518,-12.797 22.651,0 41.503,5.71 54.517,16.512 12.49,10.367 19.092,24.929 19.092,42.111 0,27.645 -15.476,45.335 -51.749,59.153 -26.717,10.177 -39.433,18.126 -39.433,35.778 0,17.21 14.589,29.229 35.477,29.229 18.588,0 32.637,-6.303 40.272,-10.783 l 7.983,23.227 c -12.848,7.24 -30.447,11.536 -47.422,11.536 -39.909,0 -67.782,-23.593 -67.782,-57.374 0,-24.085 18.027,-43.24 52.131,-55.393 28.529,-10.532 38.634,-20.659 38.634,-38.703 0,-19.572 -15.667,-31.729 -40.887,-31.729 -17.329,0 -35.809,6.67 -47.333,13.649 z m 54.518,-16.297 c -21.447,0 -42.409,5.097 -57.512,13.983 l -1.215,0.714 10.312,31.402 1.909,-1.248 c 10.876,-7.112 29.732,-14.287 47.339,-14.287 23.41,0 37.387,10.552 37.387,28.229 0,16.243 -9.507,25.51 -36.327,35.413 -35.607,12.688 -54.438,32.983 -54.438,58.683 0,16.72 6.787,32.007 19.11,43.045 13.022,11.664 31.063,17.829 52.172,17.829 18.125,0 36.98,-4.761 50.437,-12.737 l 1.226,-0.726 -10.34,-30.086 -1.87,1.181 c -6.736,4.253 -20.927,11.388 -40.286,11.388 -22.089,0 -31.977,-12.922 -31.977,-25.729 0,-15.696 11.47,-22.714 37.18,-32.507 37.852,-14.42 54.002,-33.088 54.002,-62.424 0,-37.738 -30.267,-62.123 -77.109,-62.123"
       fill="#ffffff"
       id="path27" />
    <path
       transform="matrix(1,0,0,-1,-215.1573,446.4638)"
       d="m 362.0781,271.459 c 10.824,-7.078 29.976,-14.572 48.297,-14.572 26.647,0 39.137,13.323 39.137,29.976 0,17.489 -10.409,27.065 -37.471,37.056 -36.223,12.908 -53.294,32.894 -53.294,57.042 0,32.477 26.229,59.124 69.532,59.124 20.4,0 38.305,-5.83 49.545,-12.492 l -9.158,-26.647 c -7.912,4.997 -22.485,11.659 -41.22,11.659 -21.652,0 -33.726,-12.491 -33.726,-27.479 0,-16.655 12.074,-24.15 38.305,-34.143 34.976,-13.323 52.877,-30.809 52.877,-60.789 0,-35.39 -27.48,-60.372 -75.36,-60.372 -22.068,0 -42.47,5.413 -56.625,13.741 z"
       fill="#266ab0"
       id="path29" />
    <path
       transform="matrix(1,0,0,-1,-215.1573,446.4638)"
       d="m 355.0244,244.3701 c 14.484,-8.145 34.253,-12.798 54.518,-12.798 22.651,0 41.503,5.71 54.517,16.511 12.49,10.367 19.093,24.929 19.093,42.111 0,27.645 -15.477,45.336 -51.75,59.154 -26.717,10.177 -39.433,18.126 -39.433,35.777 0,17.21 14.589,29.23 35.477,29.23 18.589,0 32.638,-6.303 40.271,-10.784 l 7.984,23.228 c -12.847,7.24 -30.445,11.536 -47.422,11.536 -39.909,0 -67.782,-23.593 -67.782,-57.374 0,-24.086 18.027,-43.241 52.131,-55.393 28.529,-10.533 38.633,-20.659 38.633,-38.705 0,-19.569 -15.667,-31.726 -40.886,-31.726 -17.331,0 -35.811,6.67 -47.333,13.649 z m 54.518,-16.298 c -21.445,0 -42.408,5.097 -57.512,13.983 l -1.215,0.714 10.312,31.403 1.909,-1.248 c 10.874,-7.112 29.729,-14.287 47.339,-14.287 23.41,0 37.386,10.551 37.386,28.226 0,16.245 -9.506,25.512 -36.326,35.415 -35.608,12.687 -54.438,32.982 -54.438,58.683 0,16.72 6.786,32.007 19.11,43.044 13.022,11.664 31.063,17.83 52.172,17.83 18.127,0 36.981,-4.761 50.437,-12.736 l 1.226,-0.727 -10.341,-30.087 -1.87,1.181 c -6.734,4.254 -20.924,11.389 -40.285,11.389 -22.089,0 -31.977,-12.923 -31.977,-25.73 0,-15.695 11.47,-22.713 37.179,-32.506 37.854,-14.42 54.004,-33.089 54.004,-62.425 0,-37.738 -30.268,-62.122 -77.11,-62.122"
       fill="#ffffff"
       id="path31" />
    <path
       transform="matrix(1,0,0,-1,-215.1573,446.4638)"
       d="m 362.5107,441.978 v -42.315 h 38.357 v -20.396 h -38.357 v -79.455 c 0,-18.264 5.175,-28.616 20.092,-28.616 7.001,0 12.176,0.914 15.523,1.828 l 1.219,-20.091 c -5.175,-2.131 -13.395,-3.655 -23.743,-3.655 -12.483,0 -22.529,3.958 -28.921,11.265 -7.612,7.915 -10.351,21.005 -10.351,38.356 v 80.368 h -22.831 v 20.396 h 22.831 v 35.313 z"
       fill="#266ab0"
       id="path33" />
    <path
       transform="matrix(1,0,0,-1,-215.1573,446.4638)"
       d="m 315.2485,381.0166 h 22.831 v -82.118 c 0,-18.344 3.134,-30.146 9.862,-37.143 6.161,-7.039 15.707,-10.727 27.66,-10.727 8.598,0 16.485,1.113 21.919,3.076 l -1.014,16.721 c -3.227,-0.711 -7.866,-1.379 -13.904,-1.379 -19.578,0 -21.842,17.33 -21.842,30.366 v 81.204 h 38.357 v 16.896 h -38.357 v 41.786 l -22.681,-6.066 v -35.72 h -22.831 z m 60.353,-133.488 c -12.992,0 -23.448,4.101 -30.238,11.862 -7.34,7.629 -10.784,20.202 -10.784,39.508 v 78.618 h -22.831 v 23.896 h 22.831 v 34.906 l 29.681,7.939 v -42.845 h 38.357 v -23.896 h -38.357 v -77.704 c 0,-18.831 5.486,-26.866 18.342,-26.866 7.101,0 12.11,0.961 15.063,1.765 l 2.077,0.567 1.424,-23.489 -1.155,-0.476 c -5.929,-2.442 -14.598,-3.785 -24.41,-3.785"
       fill="#ffffff"
       id="path35" />
    <path
       transform="matrix(1,0,0,-1,-215.1573,446.4638)"
       d="m 624.8682,243.5449 c 0.225,-0.036 0.145,0.382 0.178,0.458 -0.375,-0.094 -0.168,-0.566 -0.178,-0.458"
       fill="#0ea14b"
       id="path37" />
    <path
       transform="matrix(1,0,0,-1,-215.1573,446.4638)"
       d="m 621.168,242.5937 0.065,0.171 -0.545,-0.419 z"
       fill="#0ea14b"
       id="path39" />
    <path
       transform="matrix(1,0,0,-1,-215.1573,446.4638)"
       d="m 617.707,242.6016 c 0.327,-0.714 1.254,0.115 1.871,-0.139 l 0.102,-0.163 0.277,0.574 c -0.749,-0.089 -1.723,-0.471 -2.25,-0.272"
       fill="#0ea14b"
       id="path41" />
    <path
       transform="matrix(1,0,0,-1,-215.1573,446.4638)"
       d="m 615.8623,244.1455 c 0.113,-0.277 -0.399,-0.239 0.43,-0.087 -0.041,0.03 -0.054,0.048 -0.077,0.07 -0.076,-0.004 -0.178,-0.003 -0.353,0.017"
       fill="#0ea14b"
       id="path43" />
    <path
       transform="matrix(1,0,0,-1,-215.1573,446.4638)"
       d="m 616.2148,244.1289 c 0.364,0.021 -0.239,0.233 0,0"
       fill="#0ea14b"
       id="path45" />
    <path
       transform="matrix(1,0,0,-1,-215.1573,446.4638)"
       d="m 614.5312,243.9697 0.48,0.248 c -0.1,0.164 -0.528,0.201 -0.369,0.32 -0.492,-0.135 -0.391,-0.298 -0.111,-0.568"
       fill="#0ea14b"
       id="path47" />
    <path
       transform="matrix(1,0,0,-1,-215.1573,446.4638)"
       d="m 614.0762,243.4482 0.249,0.105 c -0.044,0.069 -0.109,0.093 -0.249,-0.105"
       fill="#0ea14b"
       id="path49" />
    <path
       transform="matrix(1,0,0,-1,-215.1573,446.4638)"
       d="m 614.8525,243.7754 -0.527,-0.222 c 0.069,-0.115 0.076,-0.346 0.242,0.08 -0.043,-0.211 0.06,-0.007 0.285,0.142"
       fill="#0ea14b"
       id="path51" />
    <path
       transform="matrix(1,0,0,-1,-215.1573,446.4638)"
       d="m 615.1514,243.667 c 0.269,-0.156 0.617,-0.254 0.135,-0.5 0.919,0.098 0.783,0.6 -0.135,0.5"
       fill="#0ea14b"
       id="path53" />
    <path
       transform="matrix(1,0,0,-1,-215.1573,446.4638)"
       d="m 617.5303,241.8633 0.36,-0.209 0.312,0.239 c -0.155,-0.119 -0.694,0.194 -0.672,-0.03"
       fill="#0ea14b"
       id="path55" />
    <path
       transform="matrix(1,0,0,-1,-215.1573,446.4638)"
       d="m 611.541,244.3389 c -0.03,-0.151 0.161,-0.404 0.197,-0.599 l 0.355,0.175 c -0.183,0.104 -0.528,0.199 -0.552,0.424"
       fill="#0ea14b"
       id="path57" />
    <path
       transform="matrix(1,0,0,-1,-215.1573,446.4638)"
       d="m 611.7383,243.7402 -0.53,-0.261 c 0.473,-0.031 0.56,0.094 0.53,0.261"
       fill="#0ea14b"
       id="path59" />
    <path
       transform="matrix(1,0,0,-1,-215.1573,446.4638)"
       d="m 613.9902,242.6562 0.872,0.548 -1.04,-0.555 z"
       fill="#0ea14b"
       id="path61" />
    <path
       transform="matrix(1,0,0,-1,-215.1573,446.4638)"
       d="m 609.5146,244.3584 0.301,0.352 -0.536,-0.532 z"
       fill="#0ea14b"
       id="path63" />
    <path
       transform="matrix(1,0,0,-1,-215.1573,446.4638)"
       d="m 608.1709,244.2969 c 0.223,0.291 -0.306,0.493 -0.07,0.672 -0.366,-0.052 -0.677,-0.302 -0.957,-0.526 0.298,0.125 0.616,0.092 1.027,-0.146"
       fill="#0ea14b"
       id="path65" />
    <path
       transform="matrix(1,0,0,-1,-215.1573,446.4638)"
       d="m 606.6719,244.1143 c 0.149,0.07 0.304,0.195 0.472,0.328 -0.16,-0.068 -0.315,-0.164 -0.472,-0.328"
       fill="#0ea14b"
       id="path67" />
    <path
       transform="matrix(1,0,0,-1,-215.1573,446.4638)"
       d="m 610.3037,243.5547 c -0.041,0.092 -0.12,0.332 -0.417,0.434 l 0.208,-0.427 c 0.063,-0.002 0.136,-0.004 0.209,-0.007"
       fill="#0ea14b"
       id="path69" />
    <path
       transform="matrix(1,0,0,-1,-215.1573,446.4638)"
       d="m 610.1025,243.5479 -0.008,0.014 c -0.226,0.011 -0.383,0.019 -0.45,0.023 0.058,-0.005 0.195,-0.016 0.458,-0.037"
       fill="#0ea14b"
       id="path71" />
    <path
       transform="matrix(1,0,0,-1,-215.1573,446.4638)"
       d="m 610.3564,243.5527 c -0.02,0.001 -0.033,0.001 -0.053,0.002 0.021,-0.042 0.032,-0.056 0.053,-0.002"
       fill="#0ea14b"
       id="path73" />
    <path
       transform="matrix(1,0,0,-1,-215.1573,446.4638)"
       d="m 612.5996,243.043 c -0.312,-0.239 -0.961,-0.495 -0.332,-0.859 0.223,0.292 -0.137,0.5 0.332,0.859"
       fill="#0ea14b"
       id="path75" />
    <path
       transform="matrix(1,0,0,-1,-215.1573,446.4638)"
       d="m 610.6152,243.0186 0.563,-0.098 c -0.01,0.114 -0.112,0.278 0.042,0.397 z"
       fill="#0ea14b"
       id="path77" />
    <path
       transform="matrix(1,0,0,-1,-215.1573,446.4638)"
       d="m 610.3398,242.8828 0.275,0.136 -0.209,0.036 z"
       fill="#0ea14b"
       id="path79" />
    <path
       transform="matrix(1,0,0,-1,-215.1573,446.4638)"
       d="m 607.6367,243.7139 c -0.243,-0.186 -0.509,-0.201 -0.81,-0.23 0.323,-0.084 0.656,-0.13 0.972,-0.129 0.045,0.134 0.184,0.375 -0.162,0.359"
       fill="#0ea14b"
       id="path81" />
    <path
       transform="matrix(1,0,0,-1,-215.1573,446.4638)"
       d="m 608.835,243.5957 -0.054,-0.024 c 0.033,-0.037 0.06,-0.048 0.054,0.024"
       fill="#0ea14b"
       id="path83" />
    <path
       transform="matrix(1,0,0,-1,-215.1573,446.4638)"
       d="m 603.8652,243.4854 0.048,-0.077 0.011,0.073 z"
       fill="#0ea14b"
       id="path85" />
    <path
       transform="matrix(1,0,0,-1,-215.1573,446.4638)"
       d="m 607.8535,243.2744 c 0.242,-0.082 0.387,0.022 0.524,0.154 -0.18,-0.043 -0.373,-0.07 -0.579,-0.074 -0.02,-0.06 -0.023,-0.101 0.055,-0.08"
       fill="#0ea14b"
       id="path87" />
    <path
       transform="matrix(1,0,0,-1,-215.1573,446.4638)"
       d="m 605.8457,243.915 c 0.126,-0.09 0.27,-0.166 0.42,-0.235 -0.123,0.135 -0.375,0.346 -0.42,0.235"
       fill="#0ea14b"
       id="path89" />
    <path
       transform="matrix(1,0,0,-1,-215.1573,446.4638)"
       d="m 608.6992,243.6895 c 0.012,0.007 0.023,0.015 0.036,0.019 -0.079,0.091 -0.069,0.046 -0.036,-0.019"
       fill="#0ea14b"
       id="path91" />
    <path
       transform="matrix(1,0,0,-1,-215.1573,446.4638)"
       d="m 608.6992,243.6895 c -0.125,-0.062 -0.223,-0.167 -0.321,-0.261 0.147,0.033 0.284,0.08 0.403,0.143 -0.03,0.03 -0.061,0.076 -0.082,0.118"
       fill="#0ea14b"
       id="path93" />
    <path
       transform="matrix(1,0,0,-1,-215.1573,446.4638)"
       d="m 602.9687,240.7432 c 0.043,0.396 0.68,0.762 1.229,0.337 0.542,0.297 0.188,1.6 -0.285,2.328 -0.016,-0.173 -0.016,-0.333 -0.573,-0.566 0.194,-0.216 1.235,-0.506 0.766,-0.865 -0.739,-0.204 -0.605,0.141 -0.963,0.35 0.305,-0.494 -0.939,-0.719 -0.778,-1.443 l 0.647,0.255 c 0.012,-0.113 -0.223,-0.293 -0.043,-0.396"
       fill="#0ea14b"
       id="path95" />
    <path
       transform="matrix(1,0,0,-1,-215.1573,446.4638)"
       d="m 604.9746,243.3682 0.229,0.049 c -0.261,0.068 -0.449,0.226 -0.792,0.537 -0.382,-0.193 -0.461,-0.34 -0.488,-0.473 l 1.129,-0.054 z"
       fill="#0ea14b"
       id="path97" />
    <path
       transform="matrix(1,0,0,-1,-215.1573,446.4638)"
       d="m 606.2324,243.4189 c -0.18,-0.432 -0.729,-0.615 -0.393,-1.081 0.673,0.03 0.472,0.36 0.873,0.547 -1.084,-0.107 0.312,0.24 -0.472,0.484 0.214,0.073 0.405,0.096 0.587,0.114 -0.197,0.052 -0.384,0.118 -0.562,0.197 l 0.025,-0.027 0.005,0.001 -10e-4,-0.006 c 0.046,-0.054 0.062,-0.086 0.009,-0.055 -0.004,-0.006 -0.016,-0.008 -0.022,-0.01 -0.008,-0.06 -0.028,-0.111 -0.049,-0.162 -0.314,0.089 -0.05,0.111 0.049,0.162 0.004,0.022 0.012,0.042 0.013,0.065 l -0.004,0.005 -1.087,-0.236 c 0.23,-0.06 0.518,-0.048 1.029,0.002"
       fill="#0ea14b"
       id="path99" />
    <path
       transform="matrix(1,0,0,-1,-215.1573,446.4638)"
       d="m 611.6875,241.2568 c -0.034,0.038 -0.032,0.068 -0.035,0.1 -0.07,-0.053 -0.097,-0.088 0.035,-0.1"
       fill="#0ea14b"
       id="path101" />
    <path
       transform="matrix(1,0,0,-1,-215.1573,446.4638)"
       d="m 611.2402,241.5166 c 0.079,0.061 0.145,0.232 0.401,0.188 0.223,-0.129 -10e-4,-0.206 0.011,-0.348 0.155,0.115 0.542,0.309 0.057,0.519 l -0.077,-0.058 c -0.438,0.147 -1,0.685 -0.924,0.744 0.128,-0.388 0.241,-0.664 0.532,-1.045"
       fill="#0ea14b"
       id="path103" />
    <path
       transform="matrix(1,0,0,-1,-215.1573,446.4638)"
       d="m 608.7051,242.3584 -0.905,-0.212 0.461,-0.373 -0.024,0.224 c 0.515,-0.088 0.404,0.188 0.468,0.361"
       fill="#0ea14b"
       id="path105" />
    <path
       transform="matrix(1,0,0,-1,-215.1573,446.4638)"
       d="m 603.7617,243.7002 0.12,0.455 -0.522,-0.642 z"
       fill="#0ea14b"
       id="path107" />
    <path
       transform="matrix(1,0,0,-1,-215.1573,446.4638)"
       d="m 602.5859,243.6455 0.043,0.396 -0.311,-0.239 z"
       fill="#0ea14b"
       id="path109" />
    <path
       transform="matrix(1,0,0,-1,-215.1573,446.4638)"
       d="m 536.2031,238.7354 -0.266,-0.112 c 0.126,0.034 0.207,0.072 0.266,0.112"
       fill="#0ea14b"
       id="path111" />
    <path
       transform="matrix(1,0,0,-1,-215.1573,446.4638)"
       d="m 538.1289,238.708 0.048,0.195 c -0.09,-0.107 -0.126,-0.186 -0.048,-0.195"
       fill="#0ea14b"
       id="path113" />
    <path
       transform="matrix(1,0,0,-1,-215.1573,446.4638)"
       d="m 573.6953,243.6006 c -0.388,0.37 -0.82,0.943 -0.773,0.498 l 0.118,-0.434 c 0.271,0.079 0.478,0.03 0.655,-0.064"
       fill="#0ea14b"
       id="path115" />
    <path
       transform="matrix(1,0,0,-1,-215.1573,446.4638)"
       d="m 553.9082,241.0107 0.114,-0.132 c 0.094,0.149 0.181,0.287 0.261,0.415 -0.114,-0.086 -0.241,-0.182 -0.375,-0.283"
       fill="#0ea14b"
       id="path117" />
    <path
       transform="matrix(1,0,0,-1,-215.1573,446.4638)"
       d="m 553.6357,239.2158 -0.511,0.279 c 0.115,-0.097 0.279,-0.191 0.511,-0.279"
       fill="#0ea14b"
       id="path119" />
    <path
       transform="matrix(1,0,0,-1,-215.1573,446.4638)"
       d="m 525.6865,238.2754 -0.311,-0.442 c 0.486,0.003 0.273,0.225 0.311,0.442"
       fill="#0ea14b"
       id="path121" />
    <path
       transform="matrix(1,0,0,-1,-215.1573,446.4638)"
       d="m 590.5381,243.4854 c -0.335,0.17 -0.601,0.241 -0.835,0.262 0.403,-0.248 0.729,-0.622 0.835,-0.262"
       fill="#0ea14b"
       id="path123" />
    <path
       transform="matrix(1,0,0,-1,-215.1573,446.4638)"
       d="m 536.9609,243.3389 c -0.162,-0.078 -0.232,-0.166 -0.228,-0.264 0.168,0.075 0.263,0.159 0.228,0.264"
       fill="#0ea14b"
       id="path125" />
    <path
       transform="matrix(1,0,0,-1,-215.1573,446.4638)"
       d="m 588.7383,243.7461 c 0.059,-0.044 0.116,-0.065 0.176,-0.103 0.245,0.074 0.491,0.132 0.789,0.104 -0.297,0.186 -0.638,0.301 -0.965,-10e-4"
       fill="#0ea14b"
       id="path127" />
    <path
       transform="matrix(1,0,0,-1,-215.1573,446.4638)"
       d="m 487.5439,238.6348 c -0.027,0.02 -0.061,0.028 -0.086,0.052 -0.009,-0.059 0.029,-0.062 0.086,-0.052"
       fill="#0ea14b"
       id="path129" />
    <path
       transform="matrix(1,0,0,-1,-215.1573,446.4638)"
       d="m 476.4316,243.0127 c 0.109,0.027 0.288,0.027 0.457,0.033 -0.082,0.029 -0.22,0.028 -0.457,-0.033"
       fill="#0ea14b"
       id="path131" />
    <path
       transform="matrix(1,0,0,-1,-215.1573,446.4638)"
       d="m 597.8525,243.835 c 0.249,0.028 0.039,0.048 0,0"
       fill="#0ea14b"
       id="path133" />
    <path
       transform="matrix(1,0,0,-1,-215.1573,446.4638)"
       d="m 599.0654,242.1191 c -0.053,-0.049 -0.093,-0.11 -0.1,-0.211 0.021,0.105 0.056,0.171 0.1,0.211"
       fill="#0ea14b"
       id="path135" />
    <path
       transform="matrix(1,0,0,-1,-215.1573,446.4638)"
       d="m 586.2529,241.0459 -0.021,0.002 c 0.074,-0.086 0.061,-0.069 0.021,-0.002"
       fill="#0ea14b"
       id="path137" />
    <path
       transform="matrix(1,0,0,-1,-215.1573,446.4638)"
       d="m 598.2275,243.6377 c -0.094,0.053 -0.201,0.098 -0.318,0.129 0.051,-0.033 0.148,-0.076 0.318,-0.129"
       fill="#0ea14b"
       id="path139" />
    <path
       transform="matrix(1,0,0,-1,-215.1573,446.4638)"
       d="m 598.1777,243.8428 c 0.086,-0.017 0.153,-0.029 0.218,-0.042 0.031,0.072 0.004,0.118 -0.218,0.042"
       fill="#0ea14b"
       id="path141" />
    <path
       transform="matrix(1,0,0,-1,-215.1573,446.4638)"
       d="m 597.5049,243.8115 c 0.143,0.007 0.276,-0.014 0.404,-0.045 -0.05,0.029 -0.069,0.054 -0.056,0.068 -0.074,-0.004 -0.177,-0.011 -0.348,-0.023"
       fill="#0ea14b"
       id="path143" />
    <path
       transform="matrix(1,0,0,-1,-215.1573,446.4638)"
       d="m 507.9805,239.7959 c -0.016,0.014 -0.035,0.022 -0.053,0.041 -0.252,-0.18 -0.141,-0.151 0.053,-0.041"
       fill="#0ea14b"
       id="path145" />
    <path
       transform="matrix(1,0,0,-1,-215.1573,446.4638)"
       d="m 567.2012,239.0957 c 0.012,0.005 0.019,0.016 0.029,0.021 l -0.037,0.015 z"
       fill="#0ea14b"
       id="path147" />
    <path
       transform="matrix(1,0,0,-1,-215.1573,446.4638)"
       d="m 566.3057,238.7725 c 0.382,0.54 0.599,0.474 0.888,0.359 l -0.297,1.251 z"
       fill="#0ea14b"
       id="path149" />
    <path
       transform="matrix(1,0,0,-1,-215.1573,446.4638)"
       d="m 505.3164,243.043 0.164,-0.126 c -0.371,-0.139 -0.268,-0.014 -0.164,0.126 m 90.646,0.19 c 0.084,0.067 0.079,0.134 0.042,0.202 -0.058,-0.122 -0.248,-0.131 -0.463,-0.096 0.059,-0.127 0.169,-0.214 0.421,-0.106 m -0.844,0.209 c -0.008,-0.007 -0.014,-0.013 -0.02,-0.023 -0.406,0.187 -0.262,0.113 0.02,0.023 m -39.825,-3.359 c -0.135,-0.159 -0.345,-0.08 -0.581,0.103 0.171,0.04 0.366,0.021 0.581,-0.103 m -14.296,-1.161 c -0.183,-0.101 -0.546,-0.413 -0.679,-0.129 0.207,0.553 0.368,0.288 0.679,0.129 m -9.405,-0.312 0.629,-0.389 c -0.759,-0.642 -1.308,-0.421 -0.718,-0.969 0.089,1.358 2.446,0.14 2.534,1.496 l 0.415,-0.286 c -0.119,0.014 -0.138,-0.066 -0.256,-0.053 0.807,-0.65 0.599,0.983 1.64,0.789 0.361,-0.104 0.614,-0.301 0.367,-0.463 l 0.807,0.336 c 0.236,-0.026 0.178,-0.261 -0.056,-0.236 l 1.231,0.108 -0.009,-0.04 c 0.176,0.213 0.574,0.543 0.768,0.683 0.312,-0.194 -0.157,-0.144 -0.077,-0.314 l 0.681,0.33 c 0.279,-0.353 -0.287,-0.694 -0.757,-0.644 0.636,-1.355 0.565,0.342 1.939,-0.449 l -0.643,-0.173 c 0.415,-0.771 0.917,-0.491 1.645,-0.972 -0.173,0.251 -1.457,1.211 -0.718,1.549 0.209,-0.102 0.484,-0.151 0.883,0.122 0.004,-0.483 0.394,-0.364 0.881,-0.337 l -0.033,-0.639 c 0.527,0.184 0.485,0.51 0.796,0.797 0.588,-0.062 0.71,-0.558 0.847,-0.975 0.942,-0.102 -0.649,0.794 0.464,0.915 0.783,-0.244 1.333,0.017 2.269,0.399 0.548,-0.219 -0.096,-0.391 0.1,-0.574 l 0.487,0.511 c 0.118,-0.013 0.08,-0.17 0.06,-0.248 0.409,0.197 0.034,0.638 0.677,0.812 0.174,0.705 1.32,-1.029 2.117,-0.229 0.196,-0.182 -0.095,-0.392 -0.035,-0.64 1.092,0.526 0.936,0.381 1.833,1.088 l 0.765,-0.42 c -0.562,0.481 0.155,1.049 0.783,1.516 -0.198,0.232 -0.369,0.435 -0.483,0.531 l 1.002,0.344 c 0.121,-0.106 0.021,-0.324 -0.144,-0.592 0.069,0.053 0.134,0.105 0.184,0.153 0.359,-0.236 0.172,-0.605 -0.085,-0.963 -0.118,0.13 -0.24,0.263 -0.36,0.395 -0.248,-0.389 -0.479,-0.819 -0.428,-1.193 0.065,0.073 0.191,0.137 0.328,0.172 -0.064,-0.105 -0.106,-0.199 -0.076,-0.263 0.034,-0.068 0.139,0.074 0.303,0.237 l 0.228,-0.713 0.055,0.283 1.312,-0.446 c 0.938,0.718 1.755,1.774 3.244,2.068 -0.369,-0.522 -0.079,-0.853 -0.1,-1.472 -0.406,0.655 -1.153,-0.28 -1.925,-0.147 0.403,-0.068 0.314,-0.363 0.212,-0.466 l 1.376,0.596 c -0.03,-0.507 0.293,-0.38 0.653,-0.589 -0.272,1.001 1.026,0.666 1.587,0.974 0.034,-0.337 -0.1,-0.68 -0.784,-0.599 0.754,-0.754 0.975,1.176 1.715,0.535 -0.167,-0.007 -0.257,0.044 -0.323,-0.126 0.39,0.298 1.343,0.062 1.118,-0.231 l -0.166,-0.008 c 1.109,-0.118 3.373,-0.007 3.538,0.844 0.011,-0.109 -0.145,-1.025 -0.212,-1.197 l 1.977,2.861 c -0.174,-0.73 0.494,-2.47 -0.424,-2.883 0.264,-0.103 0.59,-0.224 1.146,0.033 -0.18,0.104 -0.449,1.056 -0.203,1.123 0.675,-0.814 0.469,-0.435 1.301,-1.128 -0.269,0.156 0.03,1.302 0.456,1.265 -0.066,-0.172 0.035,-1.131 -0.12,-1.25 l 1.061,1.125 c -0.265,-0.203 -0.047,-0.953 0.19,-1.271 -0.109,0.22 0.918,-0.021 1.2,0.091 l -0.449,0.26 c 1.198,-0.17 1.184,1.582 2.372,1.523 -0.144,-0.233 -0.355,-1.43 0.249,-1.572 0.277,0.577 1.227,2.771 2.278,3.214 l 0.202,-0.329 0.806,0.375 c -0.502,-0.867 -1.912,-2.69 -2.681,-3.4 0.448,-0.26 0.124,-0.388 0.796,-0.358 0.237,-0.308 -0.367,-0.468 -0.564,-0.486 l 1.564,-0.199 c -0.071,0.672 1.195,0.674 1.135,1.234 l -1.698,-0.697 c -0.068,0.671 0.982,1.908 2.089,1.789 0.282,-0.268 -0.21,-1.196 -0.188,-1.42 0.144,0.231 1.052,0.442 1.154,0.277 l -0.47,-0.359 c 0.616,-0.253 1.006,0.891 1.747,0.25 0.256,-0.043 0.764,-0.866 0.808,-0.469 -0.417,0.768 -0.499,3.141 -0.221,3.717 0.09,-0.052 1.343,-0.733 1.635,-1.112 0.421,-0.602 -0.632,-1.434 -0.274,-1.95 0.016,0.183 0.248,0.41 0.345,0.482 0.269,-0.156 -0.111,-0.568 0.473,-0.485 0.097,0.681 1.186,-0.058 0.275,0.576 0.571,0.194 0.608,-0.14 1.277,-0.11 -0.212,0.44 0.602,1.499 1.174,1.693 -0.033,-0.174 0.095,-0.399 0.158,-0.502 1.169,-0.062 1.797,-0.371 2.889,-0.377 0.101,-0.165 0.627,-0.365 0.403,-0.658 0.157,0.121 0.3,0.351 0.637,0.368 0.652,-0.589 -0.75,-0.092 -0.254,-0.8 0.043,0.397 0.87,0.547 1.35,0.794 -0.148,0.612 -1.108,0.117 -1.587,-0.13 -0.003,0.844 0.833,1.728 1.974,2.117 0.906,0.21 0.392,-0.545 0.549,-0.424 1.704,-0.148 1.452,1.473 2.865,0.864 0.561,-0.537 0.025,-1.069 0.15,-1.457 -0.739,-0.203 -1.134,0.342 -1.635,0.32 l 0.617,-0.255 c -0.235,-0.178 -0.728,-0.314 -0.997,-0.159 0.47,-0.482 2.876,-0.092 4.19,-0.538 0.233,0.181 0.637,0.366 0.446,0.583 l -0.416,-0.075 c -0.382,0.433 0.782,0.599 0.256,0.802 0.558,0.304 1.183,0.784 1.968,0.539 l 0.147,-0.614 c -0.016,0.18 -0.512,0.366 -0.733,0.179 0.327,0.272 1.203,-0.83 1.561,-0.027 l -0.549,0.424 c 0.559,0.309 1.252,0.959 1.947,0.766 -0.317,0.606 -0.16,-0.069 -0.655,0.639 0.428,-0.881 -1.78,0.037 -1.091,-0.889 -0.507,0.822 -0.878,0.349 -1.541,1.05 0.02,-0.202 0.235,-0.387 -0.349,-0.287 -0.026,-0.06 -0.089,-0.134 -0.128,-0.179 -0.017,0.008 -0.024,0.01 -0.04,0.016 l 0.032,-0.024 c -0.025,-0.031 -0.027,-0.037 0.013,-0.009 0.139,-0.088 0.251,-0.194 0.297,-0.307 -0.289,-0.465 -1.218,-0.449 -1.532,-0.69 -0.347,0.096 0.145,0.232 -0.044,0.448 l -0.469,-0.36 c -0.047,0.45 -0.921,0.746 -0.104,1.01 l -0.736,0.02 c -0.431,0.252 -1.027,0.351 -1.393,0.163 -0.347,0.096 -0.876,-0.497 -0.575,-0.146 l -1.151,-0.278 -0.011,0.112 c -1.136,0.057 -2.341,-0.744 -3.64,0.067 -0.382,-0.114 -0.778,-0.252 -1.418,-0.124 l -0.125,0.388 c -0.492,-0.136 -1.476,0.389 -1.687,-0.016 -0.53,1.046 -2.385,0.228 -3.249,0.414 l -0.033,-0.508 c -0.595,0.029 -1.165,-0.115 -1.903,-0.318 l 0.045,-0.449 c -0.636,-0.368 -1.636,0.32 -2.644,0.273 0.069,0.172 0.324,0.127 0.505,0.023 -1.203,1.013 -2.538,-0.736 -3.629,0.001 -0.272,-0.163 -0.469,-0.107 -0.659,0.005 0.024,0.002 0.048,0.01 0.067,0.023 -0.028,0.006 -0.069,0.007 -0.112,0.006 -0.12,0.077 -0.243,0.167 -0.377,0.239 0.113,-0.109 0.223,-0.199 0.317,-0.241 -0.21,-0.008 -0.527,-0.064 -0.84,-0.176 l -0.132,0.481 c -0.026,-0.005 -0.045,-0.008 -0.072,-0.014 -0.306,0.178 -0.246,-0.228 -0.083,-0.589 -0.157,-0.081 -0.3,-0.175 -0.412,-0.291 -0.249,0.777 -0.818,-0.262 -1.157,0.567 -0.21,-0.404 -1.567,-0.304 -1.733,-1.155 -0.011,0.111 -0.103,0.164 0.065,0.171 -0.347,0.096 -0.694,0.194 -1.006,-0.046 l -0.147,0.612 -0.759,-0.823 c -0.461,0.373 -0.652,0.59 -0.194,1.06 -1.106,-0.724 -0.898,-0.272 -1.837,-0.99 l 0.046,0.396 c -0.336,-0.015 -0.873,-0.546 -1.077,-0.218 -0.751,0.752 -3.718,0.103 -5.648,0.802 0.375,-1.166 -0.897,0.523 -0.973,-0.38 -0.112,0.275 -0.382,0.431 -0.069,0.671 -0.984,-0.271 -1.479,0.436 -2.159,-0.326 -0.113,0.278 0.211,0.405 0.111,0.569 -0.079,-0.06 -0.313,-0.241 -0.416,-0.076 -0.1,0.165 0.145,0.232 0.3,0.352 -1.005,-0.046 -1.108,-0.895 -1.181,-1.693 -0.509,0.378 -0.763,0.324 -1.132,-0.199 -0.177,0.26 -0.473,0.534 0.152,0.627 -0.352,0.039 -2.148,0.383 -2.184,-0.256 -0.11,0.162 -0.491,0.047 -0.584,-0.027 -0.788,0.038 -0.858,0.096 -1.633,0.035 l 0.215,-0.104 c -0.305,-0.771 -0.643,-0.172 -1.268,-0.265 l 0.017,0.079 c -1.431,0.556 -0.618,-0.266 -2.03,0.368 l 0.076,-0.479 c -0.132,-1.032 -1.251,0.608 -2.071,0.214 l 0.296,-0.274 c -0.448,-0.353 -1.252,1.403 -1.701,1.532 -0.099,0.09 0.154,0.144 0.291,0.211 -1.177,0.607 -0.153,-0.629 -1.03,-0.776 -0.162,0.34 0.208,0.863 -0.382,0.926 -0.294,0.273 -1.712,-1.101 -2.518,-0.451 0.177,-0.261 0.353,-0.522 -0.054,-0.718 -0.625,-0.093 -1.689,0.987 -2.253,0.164 -0.08,0.071 -0.109,0.14 -0.113,0.204 -0.478,-0.212 -1.552,-0.352 -1.839,-0.799 -0.441,1.657 -2.969,-0.805 -2.958,0.723 l -1.469,-0.082 0.038,0.156 c -0.938,0.101 -1.27,-0.265 -1.6,-0.633 -0.217,0.105 -0.059,0.248 -0.04,0.328 -1.372,0.307 -1.509,0.243 -2.658,-0.519 l -0.12,0.496 c -0.312,-0.288 -1.984,0.777 -3.329,0.199 0.013,0.057 0.041,0.153 0.148,0.223 -1.514,-0.582 -3.624,1.375 -4.179,-0.431 l -0.999,-0.444 c 1.293,-0.141 -0.192,-0.783 0.34,-1.084 -0.509,-0.105 -1.314,0.545 -0.689,0.638 l 0.097,-0.091 c 0.23,0.941 -1.605,0.334 -1.571,0.975 -2.543,-0.047 -5.022,0.474 -7.403,0.514 l 0.274,-0.731 -0.831,0.042 c -0.218,0.171 -0.293,0.572 0.3,0.542 -0.312,0.414 -0.994,-0.348 -1.011,-0.506 -1.16,0.296 0.453,0.852 0.098,0.87 l -0.484,-0.055 0.11,-0.085 c -0.393,-0.299 -0.427,-0.616 -1.14,-0.58 -0.45,0.147 -0.231,0.451 -0.408,0.48 0.001,0.051 -0.06,0.076 -0.273,0.02 l -1.047,0.063 0.419,-0.577 c -0.464,-0.285 -0.984,0.03 -0.502,-0.624 -0.709,1.008 -3.904,0.362 -4.339,0.675 -0.651,-0.422 -1.291,-0.414 -2.086,-0.363 0.197,-0.12 0.315,-0.769 -0.37,-0.689 0.25,1.339 -1.255,0.581 -1.809,1.545 0.495,-0.639 -1.948,-0.159 -1.172,-1.066 -0.571,0.109 -0.034,0.501 -0.469,0.817 -1.36,-0.519 -2.999,0.337 -4.681,0.163 -0.027,-0.176 0.256,-0.446 -0.106,-0.707 l -0.888,0.878 c -0.333,-0.085 -0.306,-1.014 -0.913,-0.404 0.085,-0.148 0.214,-0.371 -0.009,-0.428 -3.296,0.858 -6.735,-0.701 -10.082,0.909 0.454,-0.34 0.151,-0.374 -0.195,-0.387 0.225,-0.082 -0.006,-0.435 0.039,-0.673 l -1.401,0.662 c -0.256,-0.661 -1.503,-0.045 -1.649,-0.677 l 0.444,0.114 c -0.59,-0.746 0.825,-1.659 0.739,-2.617 0.661,0.848 1.742,-1.257 2.826,-0.042 0.24,-0.196 -0.204,-0.309 -0.076,-0.531 0.276,0.41 0.608,0.496 1.223,0.312 l -0.071,-0.102 c 1.729,0.101 2.469,-0.304 4.411,-0.574 l -0.144,0.474 c 0.417,-0.064 0.505,-0.212 0.7,-0.33 0.479,0.717 -1.172,0.04 -0.735,0.832 0.553,-0.964 2.941,-0.015 3.315,-1.11 0.642,-0.006 -0.188,0.548 0.453,0.541 l 0.17,-0.296 0.163,0.382 c 0.42,-0.062 0.632,-0.433 0.648,-0.684 -0.102,0.03 -0.29,-0.071 -0.399,-0.092 0.545,-0.349 1.538,0.119 1.725,0.005 l -0.616,0.183 c 1.751,0.278 3.89,-0.112 5.581,0.491 l -0.128,0.223 c 1.292,0.413 1.034,-0.245 2.453,-0.054 l -0.052,-0.053 c 0.285,0.222 0.663,0.335 1.051,0.309 -0.357,-0.261 0.674,-0.509 0.204,-0.799 1.402,0.445 0.694,0.35 1.619,1.18 l 0.213,-0.371 c 0.316,0.336 0.342,0.513 1.05,0.609 -0.581,-0.318 0.452,-0.565 -0.198,-0.986 1.486,-0.81 2.207,0.818 2.89,-0.367 0.682,1.026 -1.288,0.57 -0.905,0.789 -0.32,0.336 0.564,0.768 1.031,0.664 0.474,-0.022 0.806,-1.312 2.001,-1.293 -0.119,0.005 -0.126,-0.072 -0.246,-0.068 0.448,-0.262 0.876,0.354 1.425,-0.071 0.308,0.621 0.712,-0.036 0.801,0.756 l -1.096,-0.183 c 0.621,0.207 1.203,1.132 2.227,0.683 -0.08,-0.159 -0.384,-0.369 -0.594,-0.486 0.3,-0.233 0.577,0.154 0.887,-0.085 -0.088,-0.792 -1.332,-0.173 -1.997,-0.776 0.321,-0.334 1.259,0.574 0.925,-0.285 0.48,1.091 1.176,-0.137 1.986,0.696 l -0.054,-0.475 c 0.128,0.075 0.394,0.299 0.629,0.286 l -0.427,-0.615 c 0.656,0.525 1.263,-0.459 1.891,-0.173 -1.316,-0.014 -0.295,0.571 -0.852,0.918 1.623,0.636 0.934,-1.241 2.75,-1.014 -0.246,-0.067 -0.923,0.286 -0.539,0.505 0.346,-0.097 0.803,-0.279 1.015,-0.529 1.203,0.1 -0.185,0.488 0.327,0.78 0.41,-0.578 0.592,0.236 1.119,0.421 l 0.004,-0.482 c 1.371,-0.311 0.363,1.005 1.598,0.631 l -0.522,-0.669 0.644,0.173 -0.133,-0.549 c 0.7,0.407 0.918,0.302 1.605,0.148 -0.16,0.34 0.089,0.875 0.697,0.891 0.414,-0.287 -0.233,-0.459 0.629,-0.391 -0.195,-0.301 -0.408,-0.68 -0.783,-0.236 -0.038,-0.156 -0.191,-0.303 -0.231,-0.457 0.446,-0.33 1.121,-0.076 1.433,-0.071 -0.119,0.018 -0.263,0.043 -0.337,0.112 l 1.248,0.669 c 0.197,-0.181 0.041,-0.327 -0.114,-0.47 0.253,0.053 0.428,0.274 0.799,0.316 -0.095,-0.392 -0.072,-0.796 -0.598,-0.982 l 1.188,0.436 c 0.08,-0.17 0.611,-0.469 0.456,-0.614 0.659,-0.23 1.617,0.762 2.491,0.457 0.046,0.077 0.137,0.149 0.324,0.205 0.821,-0.088 1.549,-0.57 2.522,-0.032 l 0.553,-0.703 c 0.762,0.159 -0.748,0.886 0.521,1.151 0.9,0.224 0.336,-0.599 0.651,-0.795 0.447,0.354 1.224,1.075 2.051,0.502 -0.274,-0.131 -0.489,-0.027 -0.744,-0.08"
       fill="#0ea14b"
       id="path151" />
    <path
       transform="matrix(1,0,0,-1,-215.1573,446.4638)"
       d="m 553.6719,239.4229 c -0.051,0.082 -0.065,0.172 -0.077,0.263 -0.072,-0.081 -0.073,-0.175 0.077,-0.263"
       fill="#0ea14b"
       id="path153" />
    <path
       transform="matrix(1,0,0,-1,-215.1573,446.4638)"
       d="m 525.7441,238.3564 -0.029,0.006 c -0.016,-0.029 -0.024,-0.059 -0.029,-0.087 z"
       fill="#0ea14b"
       id="path155" />
    <path
       transform="matrix(1,0,0,-1,-215.1573,446.4638)"
       d="m 582.8867,239.1426 c -0.174,0.069 -0.271,0.157 -0.335,0.249 -0.01,-0.118 0.069,-0.218 0.335,-0.249"
       fill="#0ea14b"
       id="path157" />
    <path
       transform="matrix(1,0,0,-1,-215.1573,446.4638)"
       d="m 600.4346,244.0527 -0.54,-0.126 c 0.262,0.024 0.354,-0.081 0.486,-0.158 -0.011,0.113 -0.115,0.276 0.054,0.284"
       fill="#0ea14b"
       id="path159" />
    <path
       transform="matrix(1,0,0,-1,-215.1573,446.4638)"
       d="m 605.1279,241.0674 c 0.079,0.059 0.168,0.006 0.245,0.066 l -0.021,0.225 c -0.336,-0.016 -0.572,-0.195 -0.224,-0.291"
       fill="#0ea14b"
       id="path161" />
    <path
       transform="matrix(1,0,0,-1,-215.1573,446.4638)"
       d="m 600.9355,242.4502 c 0.043,-0.406 0.382,-0.269 0.761,-0.193 -0.023,-0.002 -0.044,-0.005 -0.068,0 0.113,0.568 -0.292,0.38 -0.693,0.193"
       fill="#0ea14b"
       id="path163" />
    <path
       transform="matrix(1,0,0,-1,-215.1573,446.4638)"
       d="m 601.7842,242.2705 c 0.116,0.02 0.235,0.029 0.35,0.01 0.045,0.228 -0.142,0.048 -0.35,-0.01"
       fill="#0ea14b"
       id="path165" />
    <path
       transform="matrix(1,0,0,-1,-215.1573,446.4638)"
       d="m 597.0322,243.502 c 0.18,-0.104 0.113,0.519 0.215,0.354 0.2,0.516 -1.197,-0.625 -0.215,-0.354"
       fill="#0ea14b"
       id="path167" />
    <path
       transform="matrix(1,0,0,-1,-215.1573,446.4638)"
       d="m 601.2422,241.1123 -0.136,0.502 -0.212,-0.404 z"
       fill="#0ea14b"
       id="path169" />
    <path
       transform="matrix(1,0,0,-1,-215.1573,446.4638)"
       d="m 598.252,241.4805 0.604,-0.139 c -0.008,0.084 0.069,0.134 0.163,0.171 -0.372,0.017 -0.782,0.116 -0.767,-0.032"
       fill="#0ea14b"
       id="path171" />
    <path
       transform="matrix(1,0,0,-1,-215.1573,446.4638)"
       d="m 599.0186,241.5127 c 0.194,-0.01 0.38,0.001 0.487,0.083 -0.104,-0.005 -0.331,-0.022 -0.487,-0.083"
       fill="#0ea14b"
       id="path173" />
    <path
       transform="matrix(1,0,0,-1,-215.1573,446.4638)"
       d="m 600.415,240.9619 -0.179,0.105 -0.427,0.037 z"
       fill="#0ea14b"
       id="path175" />
    <path
       transform="matrix(1,0,0,-1,-215.1573,446.4638)"
       d="m 591.7461,241.5771 -0.66,-0.144 c -0.068,-0.171 0.112,-0.276 0.358,-0.208 0.158,0.12 0.404,0.186 0.302,0.352"
       fill="#0ea14b"
       id="path177" />
    <path
       transform="matrix(1,0,0,-1,-215.1573,446.4638)"
       d="m 593.7432,240.2051 c -0.178,0.104 -0.19,0.216 -0.291,0.381 l -0.02,-0.621 z"
       fill="#0ea14b"
       id="path179" />
    <path
       transform="matrix(1,0,0,-1,-215.1573,446.4638)"
       d="m 591.8174,240.0596 c -0.065,-0.172 -0.958,-0.494 -0.121,-0.455 0.066,0.171 0.728,0.314 0.121,0.455"
       fill="#0ea14b"
       id="path181" />
    <path
       transform="matrix(1,0,0,-1,-215.1573,446.4638)"
       d="m 581.8652,240.8457 0.168,0.008 -0.023,1.018 z"
       fill="#0ea14b"
       id="path183" />
    <path
       transform="matrix(1,0,0,-1,-215.1573,446.4638)"
       d="m 573.0937,238.4092 c 0.783,-0.244 0.187,0.629 0.894,0.324 0.183,0.24 -0.579,0.248 -0.39,0.456 -0.473,-0.254 -0.721,-0.11 -0.504,-0.78"
       fill="#0ea14b"
       id="path185" />
    <path
       transform="matrix(1,0,0,-1,-215.1573,446.4638)"
       d="m 573.5977,239.1895 c 0.076,0.04 0.156,0.089 0.241,0.155 -0.137,-0.064 -0.201,-0.113 -0.241,-0.155"
       fill="#0ea14b"
       id="path187" />
    <path
       transform="matrix(1,0,0,-1,-215.1573,446.4638)"
       d="m 474.5879,243.5596 -0.503,0.213 0.325,-0.343 z"
       fill="#0ea14b"
       id="path189" />
    <path
       transform="matrix(1,0,0,-1,-215.1573,446.4638)"
       d="m 473.6221,242.8037 -0.119,0.649 -0.302,-0.587 c 0.114,0.029 0.334,0.084 0.421,-0.062"
       fill="#0ea14b"
       id="path191" />
    <path
       transform="matrix(1,0,0,-1,-215.1573,446.4638)"
       d="m 542.3955,237.6143 0.038,0.156 c -0.078,0.169 -0.195,0.182 -0.432,0.208 z"
       fill="#0ea14b"
       id="path193" />
    <path
       transform="matrix(1,0,0,-1,-215.1573,446.4638)"
       d="m 535.5693,238.1006 0.117,-0.014 -0.219,0.587 z"
       fill="#0ea14b"
       id="path195" />
    <path
       transform="matrix(1,0,0,-1,-215.1573,446.4638)"
       d="m 529.8408,237.3516 c 0.233,-0.024 0.509,0.106 0.743,0.081 -0.51,-0.105 -0.806,0.65 -0.743,-0.081"
       fill="#0ea14b"
       id="path197" />
    <path
       transform="matrix(1,0,0,-1,-215.1573,446.4638)"
       d="m 624.8682,234.5449 c 0.225,-0.036 0.145,0.382 0.178,0.458 -0.375,-0.094 -0.168,-0.566 -0.178,-0.458"
       fill="#ed1c24"
       id="path199" />
    <path
       transform="matrix(1,0,0,-1,-215.1573,446.4638)"
       d="m 621.168,233.5937 0.065,0.171 -0.545,-0.419 z"
       fill="#ed1c24"
       id="path201" />
    <path
       transform="matrix(1,0,0,-1,-215.1573,446.4638)"
       d="m 617.707,233.6016 c 0.327,-0.714 1.254,0.115 1.871,-0.139 l 0.102,-0.163 0.277,0.574 c -0.749,-0.089 -1.723,-0.471 -2.25,-0.272"
       fill="#ed1c24"
       id="path203" />
    <path
       transform="matrix(1,0,0,-1,-215.1573,446.4638)"
       d="m 615.8623,235.1455 c 0.113,-0.277 -0.399,-0.239 0.43,-0.087 -0.041,0.03 -0.054,0.048 -0.077,0.07 -0.076,-0.004 -0.178,-0.003 -0.353,0.017"
       fill="#ed1c24"
       id="path205" />
    <path
       transform="matrix(1,0,0,-1,-215.1573,446.4638)"
       d="m 616.2148,235.1289 c 0.364,0.021 -0.239,0.233 0,0"
       fill="#ed1c24"
       id="path207" />
    <path
       transform="matrix(1,0,0,-1,-215.1573,446.4638)"
       d="m 614.5312,234.9697 0.48,0.248 c -0.1,0.164 -0.528,0.201 -0.369,0.32 -0.492,-0.135 -0.391,-0.298 -0.111,-0.568"
       fill="#ed1c24"
       id="path209" />
    <path
       transform="matrix(1,0,0,-1,-215.1573,446.4638)"
       d="m 614.0762,234.4482 0.249,0.105 c -0.044,0.069 -0.109,0.093 -0.249,-0.105"
       fill="#ed1c24"
       id="path211" />
    <path
       transform="matrix(1,0,0,-1,-215.1573,446.4638)"
       d="m 614.8525,234.7754 -0.527,-0.222 c 0.069,-0.115 0.076,-0.346 0.242,0.08 -0.043,-0.211 0.06,-0.007 0.285,0.142"
       fill="#ed1c24"
       id="path213" />
    <path
       transform="matrix(1,0,0,-1,-215.1573,446.4638)"
       d="m 615.1514,234.667 c 0.269,-0.156 0.617,-0.254 0.135,-0.5 0.919,0.098 0.783,0.6 -0.135,0.5"
       fill="#ed1c24"
       id="path215" />
    <path
       transform="matrix(1,0,0,-1,-215.1573,446.4638)"
       d="m 617.5303,232.8633 0.36,-0.209 0.312,0.239 c -0.155,-0.119 -0.694,0.194 -0.672,-0.03"
       fill="#ed1c24"
       id="path217" />
    <path
       transform="matrix(1,0,0,-1,-215.1573,446.4638)"
       d="m 611.541,235.3389 c -0.03,-0.151 0.161,-0.404 0.197,-0.599 l 0.355,0.175 c -0.183,0.104 -0.528,0.199 -0.552,0.424"
       fill="#ed1c24"
       id="path219" />
    <path
       transform="matrix(1,0,0,-1,-215.1573,446.4638)"
       d="m 611.7383,234.7402 -0.53,-0.261 c 0.473,-0.031 0.56,0.094 0.53,0.261"
       fill="#ed1c24"
       id="path221" />
    <path
       transform="matrix(1,0,0,-1,-215.1573,446.4638)"
       d="m 613.9902,233.6562 0.872,0.548 -1.04,-0.555 z"
       fill="#ed1c24"
       id="path223" />
    <path
       transform="matrix(1,0,0,-1,-215.1573,446.4638)"
       d="m 609.5146,235.3584 0.301,0.352 -0.536,-0.532 z"
       fill="#ed1c24"
       id="path225" />
    <path
       transform="matrix(1,0,0,-1,-215.1573,446.4638)"
       d="m 608.1709,235.2969 c 0.223,0.291 -0.306,0.493 -0.07,0.672 -0.366,-0.052 -0.677,-0.302 -0.957,-0.526 0.298,0.125 0.616,0.092 1.027,-0.146"
       fill="#ed1c24"
       id="path227" />
    <path
       transform="matrix(1,0,0,-1,-215.1573,446.4638)"
       d="m 606.6719,235.1143 c 0.149,0.07 0.304,0.195 0.472,0.328 -0.16,-0.068 -0.315,-0.164 -0.472,-0.328"
       fill="#ed1c24"
       id="path229" />
    <path
       transform="matrix(1,0,0,-1,-215.1573,446.4638)"
       d="m 610.3037,234.5547 c -0.041,0.092 -0.12,0.332 -0.417,0.434 l 0.208,-0.427 c 0.063,-0.002 0.136,-0.004 0.209,-0.007"
       fill="#ed1c24"
       id="path231" />
    <path
       transform="matrix(1,0,0,-1,-215.1573,446.4638)"
       d="m 610.1025,234.5479 -0.008,0.014 c -0.226,0.011 -0.383,0.019 -0.45,0.023 0.058,-0.005 0.195,-0.016 0.458,-0.037"
       fill="#ed1c24"
       id="path233" />
    <path
       transform="matrix(1,0,0,-1,-215.1573,446.4638)"
       d="m 610.3564,234.5527 c -0.02,0.001 -0.033,0.001 -0.053,0.002 0.021,-0.042 0.032,-0.056 0.053,-0.002"
       fill="#ed1c24"
       id="path235" />
    <path
       transform="matrix(1,0,0,-1,-215.1573,446.4638)"
       d="m 612.5996,234.043 c -0.312,-0.239 -0.961,-0.495 -0.332,-0.859 0.223,0.292 -0.137,0.5 0.332,0.859"
       fill="#ed1c24"
       id="path237" />
    <path
       transform="matrix(1,0,0,-1,-215.1573,446.4638)"
       d="m 610.6152,234.0186 0.563,-0.098 c -0.01,0.114 -0.112,0.278 0.042,0.397 z"
       fill="#ed1c24"
       id="path239" />
    <path
       transform="matrix(1,0,0,-1,-215.1573,446.4638)"
       d="m 610.3398,233.8828 0.275,0.136 -0.209,0.036 z"
       fill="#ed1c24"
       id="path241" />
    <path
       transform="matrix(1,0,0,-1,-215.1573,446.4638)"
       d="m 607.6367,234.7139 c -0.243,-0.186 -0.509,-0.201 -0.81,-0.23 0.323,-0.084 0.656,-0.13 0.972,-0.129 0.045,0.134 0.184,0.375 -0.162,0.359"
       fill="#ed1c24"
       id="path243" />
    <path
       transform="matrix(1,0,0,-1,-215.1573,446.4638)"
       d="m 608.835,234.5957 -0.054,-0.024 c 0.033,-0.037 0.06,-0.048 0.054,0.024"
       fill="#ed1c24"
       id="path245" />
    <path
       transform="matrix(1,0,0,-1,-215.1573,446.4638)"
       d="m 603.8652,234.4854 0.048,-0.077 0.011,0.073 z"
       fill="#ed1c24"
       id="path247" />
    <path
       transform="matrix(1,0,0,-1,-215.1573,446.4638)"
       d="m 607.8535,234.2744 c 0.242,-0.082 0.387,0.022 0.524,0.154 -0.18,-0.043 -0.373,-0.07 -0.579,-0.074 -0.02,-0.06 -0.023,-0.101 0.055,-0.08"
       fill="#ed1c24"
       id="path249" />
    <path
       transform="matrix(1,0,0,-1,-215.1573,446.4638)"
       d="m 605.8457,234.915 c 0.126,-0.09 0.27,-0.166 0.42,-0.235 -0.123,0.135 -0.375,0.346 -0.42,0.235"
       fill="#ed1c24"
       id="path251" />
    <path
       transform="matrix(1,0,0,-1,-215.1573,446.4638)"
       d="m 608.6992,234.6895 c 0.012,0.007 0.023,0.015 0.036,0.019 -0.079,0.091 -0.069,0.046 -0.036,-0.019"
       fill="#ed1c24"
       id="path253" />
    <path
       transform="matrix(1,0,0,-1,-215.1573,446.4638)"
       d="m 608.6992,234.6895 c -0.125,-0.062 -0.223,-0.167 -0.321,-0.261 0.147,0.033 0.284,0.08 0.403,0.143 -0.03,0.03 -0.061,0.076 -0.082,0.118"
       fill="#ed1c24"
       id="path255" />
    <path
       transform="matrix(1,0,0,-1,-215.1573,446.4638)"
       d="m 602.9687,231.7432 c 0.043,0.396 0.68,0.762 1.229,0.337 0.542,0.297 0.188,1.6 -0.285,2.328 -0.016,-0.173 -0.016,-0.333 -0.573,-0.566 0.194,-0.216 1.235,-0.506 0.766,-0.865 -0.739,-0.204 -0.605,0.141 -0.963,0.35 0.305,-0.494 -0.939,-0.719 -0.778,-1.443 l 0.647,0.255 c 0.012,-0.113 -0.223,-0.293 -0.043,-0.396"
       fill="#ed1c24"
       id="path257" />
    <path
       transform="matrix(1,0,0,-1,-215.1573,446.4638)"
       d="m 604.9746,234.3682 0.229,0.049 c -0.261,0.068 -0.449,0.226 -0.792,0.537 -0.382,-0.193 -0.461,-0.34 -0.488,-0.473 l 1.129,-0.054 z"
       fill="#ed1c24"
       id="path259" />
    <path
       transform="matrix(1,0,0,-1,-215.1573,446.4638)"
       d="m 606.2324,234.4189 c -0.18,-0.432 -0.729,-0.615 -0.393,-1.081 0.673,0.03 0.472,0.36 0.873,0.547 -1.084,-0.107 0.312,0.24 -0.472,0.484 0.214,0.073 0.405,0.096 0.587,0.114 -0.197,0.052 -0.384,0.118 -0.562,0.197 l 0.025,-0.027 0.005,0.001 -10e-4,-0.006 c 0.046,-0.054 0.062,-0.086 0.009,-0.055 -0.004,-0.006 -0.016,-0.008 -0.022,-0.01 -0.008,-0.06 -0.028,-0.111 -0.049,-0.162 -0.314,0.089 -0.05,0.111 0.049,0.162 0.004,0.022 0.012,0.042 0.013,0.065 l -0.004,0.005 -1.087,-0.236 c 0.23,-0.06 0.518,-0.048 1.029,0.002"
       fill="#ed1c24"
       id="path261" />
    <path
       transform="matrix(1,0,0,-1,-215.1573,446.4638)"
       d="m 611.6875,232.2568 c -0.034,0.038 -0.032,0.068 -0.035,0.1 -0.07,-0.053 -0.097,-0.088 0.035,-0.1"
       fill="#ed1c24"
       id="path263" />
    <path
       transform="matrix(1,0,0,-1,-215.1573,446.4638)"
       d="m 611.2402,232.5166 c 0.079,0.061 0.145,0.232 0.401,0.188 0.223,-0.129 -10e-4,-0.206 0.011,-0.348 0.155,0.115 0.542,0.309 0.057,0.519 l -0.077,-0.058 c -0.438,0.147 -1,0.685 -0.924,0.744 0.128,-0.388 0.241,-0.664 0.532,-1.045"
       fill="#ed1c24"
       id="path265" />
    <path
       transform="matrix(1,0,0,-1,-215.1573,446.4638)"
       d="m 608.7051,233.3584 -0.905,-0.212 0.461,-0.373 -0.024,0.224 c 0.515,-0.088 0.404,0.188 0.468,0.361"
       fill="#ed1c24"
       id="path267" />
    <path
       transform="matrix(1,0,0,-1,-215.1573,446.4638)"
       d="m 603.7617,234.7002 0.12,0.455 -0.522,-0.642 z"
       fill="#ed1c24"
       id="path269" />
    <path
       transform="matrix(1,0,0,-1,-215.1573,446.4638)"
       d="m 602.5859,234.6455 0.043,0.396 -0.311,-0.239 z"
       fill="#ed1c24"
       id="path271" />
    <path
       transform="matrix(1,0,0,-1,-215.1573,446.4638)"
       d="m 536.2031,229.7354 -0.266,-0.112 c 0.126,0.034 0.207,0.072 0.266,0.112"
       fill="#ed1c24"
       id="path273" />
    <path
       transform="matrix(1,0,0,-1,-215.1573,446.4638)"
       d="m 538.1289,229.708 0.048,0.195 c -0.09,-0.107 -0.126,-0.186 -0.048,-0.195"
       fill="#ed1c24"
       id="path275" />
    <path
       transform="matrix(1,0,0,-1,-215.1573,446.4638)"
       d="m 573.6953,234.6006 c -0.388,0.37 -0.82,0.943 -0.773,0.498 l 0.118,-0.434 c 0.271,0.079 0.478,0.03 0.655,-0.064"
       fill="#ed1c24"
       id="path277" />
    <path
       transform="matrix(1,0,0,-1,-215.1573,446.4638)"
       d="m 553.9082,232.0107 0.114,-0.132 c 0.094,0.149 0.181,0.287 0.261,0.415 -0.114,-0.086 -0.241,-0.182 -0.375,-0.283"
       fill="#ed1c24"
       id="path279" />
    <path
       transform="matrix(1,0,0,-1,-215.1573,446.4638)"
       d="m 553.6357,230.2158 -0.511,0.279 c 0.115,-0.097 0.279,-0.191 0.511,-0.279"
       fill="#ed1c24"
       id="path281" />
    <path
       transform="matrix(1,0,0,-1,-215.1573,446.4638)"
       d="m 525.6865,229.2754 -0.311,-0.442 c 0.486,0.003 0.273,0.225 0.311,0.442"
       fill="#ed1c24"
       id="path283" />
    <path
       transform="matrix(1,0,0,-1,-215.1573,446.4638)"
       d="m 590.5381,234.4854 c -0.335,0.17 -0.601,0.241 -0.835,0.262 0.403,-0.248 0.729,-0.622 0.835,-0.262"
       fill="#ed1c24"
       id="path285" />
    <path
       transform="matrix(1,0,0,-1,-215.1573,446.4638)"
       d="m 536.9609,234.3389 c -0.162,-0.078 -0.232,-0.166 -0.228,-0.264 0.168,0.075 0.263,0.159 0.228,0.264"
       fill="#ed1c24"
       id="path287" />
    <path
       transform="matrix(1,0,0,-1,-215.1573,446.4638)"
       d="m 588.7383,234.7461 c 0.059,-0.044 0.116,-0.065 0.176,-0.103 0.245,0.074 0.491,0.132 0.789,0.104 -0.297,0.186 -0.638,0.301 -0.965,-10e-4"
       fill="#ed1c24"
       id="path289" />
    <path
       transform="matrix(1,0,0,-1,-215.1573,446.4638)"
       d="m 487.5439,229.6348 c -0.027,0.02 -0.061,0.028 -0.086,0.052 -0.009,-0.059 0.029,-0.062 0.086,-0.052"
       fill="#ed1c24"
       id="path291" />
    <path
       transform="matrix(1,0,0,-1,-215.1573,446.4638)"
       d="m 476.4316,234.0127 c 0.109,0.027 0.288,0.027 0.457,0.033 -0.082,0.029 -0.22,0.028 -0.457,-0.033"
       fill="#ed1c24"
       id="path293" />
    <path
       transform="matrix(1,0,0,-1,-215.1573,446.4638)"
       d="m 597.8525,234.835 c 0.249,0.028 0.039,0.048 0,0"
       fill="#ed1c24"
       id="path295" />
    <path
       transform="matrix(1,0,0,-1,-215.1573,446.4638)"
       d="m 599.0654,233.1191 c -0.053,-0.049 -0.093,-0.11 -0.1,-0.211 0.021,0.105 0.056,0.171 0.1,0.211"
       fill="#ed1c24"
       id="path297" />
    <path
       transform="matrix(1,0,0,-1,-215.1573,446.4638)"
       d="m 586.2529,232.0459 -0.021,0.002 c 0.074,-0.086 0.061,-0.069 0.021,-0.002"
       fill="#ed1c24"
       id="path299" />
    <path
       transform="matrix(1,0,0,-1,-215.1573,446.4638)"
       d="m 598.2275,234.6377 c -0.094,0.053 -0.201,0.098 -0.318,0.129 0.051,-0.033 0.148,-0.076 0.318,-0.129"
       fill="#ed1c24"
       id="path301" />
    <path
       transform="matrix(1,0,0,-1,-215.1573,446.4638)"
       d="m 598.1777,234.8428 c 0.086,-0.017 0.153,-0.029 0.218,-0.042 0.031,0.072 0.004,0.118 -0.218,0.042"
       fill="#ed1c24"
       id="path303" />
    <path
       transform="matrix(1,0,0,-1,-215.1573,446.4638)"
       d="m 597.5049,234.8115 c 0.143,0.007 0.276,-0.014 0.404,-0.045 -0.05,0.029 -0.069,0.054 -0.056,0.068 -0.074,-0.004 -0.177,-0.011 -0.348,-0.023"
       fill="#ed1c24"
       id="path305" />
    <path
       transform="matrix(1,0,0,-1,-215.1573,446.4638)"
       d="m 507.9805,230.7959 c -0.016,0.014 -0.035,0.022 -0.053,0.041 -0.252,-0.18 -0.141,-0.151 0.053,-0.041"
       fill="#ed1c24"
       id="path307" />
    <path
       transform="matrix(1,0,0,-1,-215.1573,446.4638)"
       d="m 567.2012,230.0957 c 0.012,0.005 0.019,0.016 0.029,0.021 l -0.037,0.015 z"
       fill="#ed1c24"
       id="path309" />
    <path
       transform="matrix(1,0,0,-1,-215.1573,446.4638)"
       d="m 566.3057,229.7725 c 0.382,0.54 0.599,0.474 0.888,0.359 l -0.297,1.251 z"
       fill="#ed1c24"
       id="path311" />
    <path
       transform="matrix(1,0,0,-1,-215.1573,446.4638)"
       d="m 505.3164,234.043 0.164,-0.126 c -0.371,-0.139 -0.268,-0.014 -0.164,0.126 m 90.646,0.19 c 0.084,0.067 0.079,0.134 0.042,0.202 -0.058,-0.122 -0.248,-0.131 -0.463,-0.096 0.059,-0.127 0.169,-0.214 0.421,-0.106 m -0.844,0.209 c -0.008,-0.007 -0.014,-0.013 -0.02,-0.023 -0.406,0.187 -0.262,0.113 0.02,0.023 m -39.825,-3.359 c -0.135,-0.159 -0.345,-0.08 -0.581,0.103 0.171,0.04 0.366,0.021 0.581,-0.103 m -14.296,-1.161 c -0.183,-0.101 -0.546,-0.413 -0.679,-0.129 0.207,0.553 0.368,0.288 0.679,0.129 m -9.405,-0.312 0.629,-0.389 c -0.759,-0.642 -1.308,-0.421 -0.718,-0.969 0.089,1.358 2.446,0.14 2.534,1.496 l 0.415,-0.286 c -0.119,0.014 -0.138,-0.066 -0.256,-0.053 0.807,-0.65 0.599,0.983 1.64,0.789 0.361,-0.104 0.614,-0.301 0.367,-0.463 l 0.807,0.336 c 0.236,-0.026 0.178,-0.261 -0.056,-0.236 l 1.231,0.108 -0.009,-0.04 c 0.176,0.213 0.574,0.543 0.768,0.683 0.312,-0.194 -0.157,-0.144 -0.077,-0.314 l 0.681,0.33 c 0.279,-0.353 -0.287,-0.694 -0.757,-0.644 0.636,-1.355 0.565,0.342 1.939,-0.449 l -0.643,-0.173 c 0.415,-0.771 0.917,-0.491 1.645,-0.972 -0.173,0.251 -1.457,1.211 -0.718,1.549 0.209,-0.102 0.484,-0.151 0.883,0.122 0.004,-0.483 0.394,-0.364 0.881,-0.337 l -0.033,-0.639 c 0.527,0.184 0.485,0.51 0.796,0.797 0.588,-0.062 0.71,-0.558 0.847,-0.975 0.942,-0.102 -0.649,0.794 0.464,0.915 0.783,-0.244 1.333,0.017 2.269,0.399 0.548,-0.219 -0.096,-0.391 0.1,-0.574 l 0.487,0.511 c 0.118,-0.013 0.08,-0.17 0.06,-0.248 0.409,0.197 0.034,0.638 0.677,0.812 0.174,0.705 1.32,-1.029 2.117,-0.229 0.196,-0.182 -0.095,-0.392 -0.035,-0.64 1.092,0.526 0.936,0.381 1.833,1.088 l 0.765,-0.42 c -0.562,0.481 0.155,1.049 0.783,1.516 -0.198,0.232 -0.369,0.435 -0.483,0.531 l 1.002,0.344 c 0.121,-0.106 0.021,-0.324 -0.144,-0.592 0.069,0.053 0.134,0.105 0.184,0.153 0.359,-0.236 0.172,-0.605 -0.085,-0.963 -0.118,0.13 -0.24,0.263 -0.36,0.395 -0.248,-0.389 -0.479,-0.819 -0.428,-1.193 0.065,0.073 0.191,0.137 0.328,0.172 -0.064,-0.105 -0.106,-0.199 -0.076,-0.263 0.034,-0.068 0.139,0.074 0.303,0.237 l 0.228,-0.713 0.055,0.283 1.312,-0.446 c 0.938,0.718 1.755,1.774 3.244,2.068 -0.369,-0.522 -0.079,-0.853 -0.1,-1.472 -0.406,0.655 -1.153,-0.28 -1.925,-0.147 0.403,-0.068 0.314,-0.363 0.212,-0.466 l 1.376,0.596 c -0.03,-0.507 0.293,-0.38 0.653,-0.589 -0.272,1.001 1.026,0.666 1.587,0.974 0.034,-0.337 -0.1,-0.68 -0.784,-0.599 0.754,-0.754 0.975,1.176 1.715,0.535 -0.167,-0.007 -0.257,0.044 -0.323,-0.126 0.39,0.298 1.343,0.062 1.118,-0.231 l -0.166,-0.008 c 1.109,-0.118 3.373,-0.007 3.538,0.844 0.011,-0.109 -0.145,-1.025 -0.212,-1.197 l 1.977,2.861 c -0.174,-0.73 0.494,-2.47 -0.424,-2.883 0.264,-0.103 0.59,-0.224 1.146,0.033 -0.18,0.104 -0.449,1.056 -0.203,1.123 0.675,-0.814 0.469,-0.435 1.301,-1.128 -0.269,0.156 0.03,1.302 0.456,1.265 -0.066,-0.172 0.035,-1.131 -0.12,-1.25 l 1.061,1.125 c -0.265,-0.203 -0.047,-0.953 0.19,-1.271 -0.109,0.22 0.918,-0.021 1.2,0.091 l -0.449,0.26 c 1.198,-0.17 1.184,1.582 2.372,1.523 -0.144,-0.233 -0.355,-1.43 0.249,-1.572 0.277,0.577 1.227,2.771 2.278,3.214 l 0.202,-0.329 0.806,0.375 c -0.502,-0.867 -1.912,-2.69 -2.681,-3.4 0.448,-0.26 0.124,-0.388 0.796,-0.358 0.237,-0.308 -0.367,-0.468 -0.564,-0.486 l 1.564,-0.199 c -0.071,0.672 1.195,0.674 1.135,1.234 l -1.698,-0.697 c -0.068,0.671 0.982,1.908 2.089,1.789 0.282,-0.268 -0.21,-1.196 -0.188,-1.42 0.144,0.231 1.052,0.442 1.154,0.277 l -0.47,-0.359 c 0.616,-0.253 1.006,0.891 1.747,0.25 0.256,-0.043 0.764,-0.866 0.808,-0.469 -0.417,0.768 -0.499,3.141 -0.221,3.717 0.09,-0.052 1.343,-0.733 1.635,-1.112 0.421,-0.602 -0.632,-1.434 -0.274,-1.95 0.016,0.183 0.248,0.41 0.345,0.482 0.269,-0.156 -0.111,-0.568 0.473,-0.485 0.097,0.681 1.186,-0.058 0.275,0.576 0.571,0.194 0.608,-0.14 1.277,-0.11 -0.212,0.44 0.602,1.499 1.174,1.693 -0.033,-0.174 0.095,-0.399 0.158,-0.502 1.169,-0.062 1.797,-0.371 2.889,-0.377 0.101,-0.165 0.627,-0.365 0.403,-0.658 0.157,0.121 0.3,0.351 0.637,0.368 0.652,-0.589 -0.75,-0.092 -0.254,-0.8 0.043,0.397 0.87,0.547 1.35,0.794 -0.148,0.612 -1.108,0.117 -1.587,-0.13 -0.003,0.844 0.833,1.728 1.974,2.117 0.906,0.21 0.392,-0.545 0.549,-0.424 1.704,-0.148 1.452,1.473 2.865,0.864 0.561,-0.537 0.025,-1.069 0.15,-1.457 -0.739,-0.203 -1.134,0.342 -1.635,0.32 l 0.617,-0.255 c -0.235,-0.178 -0.728,-0.314 -0.997,-0.159 0.47,-0.482 2.876,-0.092 4.19,-0.538 0.233,0.181 0.637,0.366 0.446,0.583 l -0.416,-0.075 c -0.382,0.433 0.782,0.599 0.256,0.802 0.558,0.304 1.183,0.784 1.968,0.539 l 0.147,-0.614 c -0.016,0.18 -0.512,0.366 -0.733,0.179 0.327,0.272 1.203,-0.83 1.561,-0.027 l -0.549,0.424 c 0.559,0.309 1.252,0.959 1.947,0.766 -0.317,0.606 -0.16,-0.069 -0.655,0.639 0.428,-0.881 -1.78,0.037 -1.091,-0.889 -0.507,0.822 -0.878,0.349 -1.541,1.05 0.02,-0.202 0.235,-0.387 -0.349,-0.287 -0.026,-0.06 -0.089,-0.134 -0.128,-0.179 -0.017,0.008 -0.024,0.01 -0.04,0.016 l 0.032,-0.024 c -0.025,-0.031 -0.027,-0.037 0.013,-0.009 0.139,-0.088 0.251,-0.194 0.297,-0.307 -0.289,-0.465 -1.218,-0.449 -1.532,-0.69 -0.347,0.096 0.145,0.232 -0.044,0.448 l -0.469,-0.36 c -0.047,0.45 -0.921,0.746 -0.104,1.01 l -0.736,0.02 c -0.431,0.252 -1.027,0.351 -1.393,0.163 -0.347,0.096 -0.876,-0.497 -0.575,-0.146 l -1.151,-0.278 -0.011,0.112 c -1.136,0.057 -2.341,-0.744 -3.64,0.067 -0.382,-0.114 -0.778,-0.252 -1.418,-0.124 l -0.125,0.388 c -0.492,-0.136 -1.476,0.389 -1.687,-0.016 -0.53,1.046 -2.385,0.228 -3.249,0.414 l -0.033,-0.508 c -0.595,0.029 -1.165,-0.115 -1.903,-0.318 l 0.045,-0.449 c -0.636,-0.368 -1.636,0.32 -2.644,0.273 0.069,0.172 0.324,0.127 0.505,0.023 -1.203,1.013 -2.538,-0.736 -3.629,0.001 -0.272,-0.163 -0.469,-0.107 -0.659,0.005 0.024,0.002 0.048,0.01 0.067,0.023 -0.028,0.006 -0.069,0.007 -0.112,0.006 -0.12,0.077 -0.243,0.167 -0.377,0.239 0.113,-0.109 0.223,-0.199 0.317,-0.241 -0.21,-0.008 -0.527,-0.064 -0.84,-0.176 l -0.132,0.481 c -0.026,-0.005 -0.045,-0.008 -0.072,-0.014 -0.306,0.178 -0.246,-0.228 -0.083,-0.589 -0.157,-0.081 -0.3,-0.175 -0.412,-0.291 -0.249,0.777 -0.818,-0.262 -1.157,0.567 -0.21,-0.404 -1.567,-0.304 -1.733,-1.155 -0.011,0.111 -0.103,0.164 0.065,0.171 -0.347,0.096 -0.694,0.194 -1.006,-0.046 l -0.147,0.612 -0.759,-0.823 c -0.461,0.373 -0.652,0.59 -0.194,1.06 -1.106,-0.724 -0.898,-0.272 -1.837,-0.99 l 0.046,0.396 c -0.336,-0.015 -0.873,-0.546 -1.077,-0.218 -0.751,0.752 -3.718,0.103 -5.648,0.802 0.375,-1.166 -0.897,0.523 -0.973,-0.38 -0.112,0.275 -0.382,0.431 -0.069,0.671 -0.984,-0.271 -1.479,0.436 -2.159,-0.326 -0.113,0.278 0.211,0.405 0.111,0.569 -0.079,-0.06 -0.313,-0.241 -0.416,-0.076 -0.1,0.165 0.145,0.232 0.3,0.352 -1.005,-0.046 -1.108,-0.895 -1.181,-1.693 -0.509,0.378 -0.763,0.324 -1.132,-0.199 -0.177,0.26 -0.473,0.534 0.152,0.627 -0.352,0.039 -2.148,0.383 -2.184,-0.256 -0.11,0.162 -0.491,0.047 -0.584,-0.027 -0.788,0.038 -0.858,0.096 -1.633,0.035 l 0.215,-0.104 c -0.305,-0.771 -0.643,-0.172 -1.268,-0.265 l 0.017,0.079 c -1.431,0.556 -0.618,-0.266 -2.03,0.368 l 0.076,-0.479 c -0.132,-1.032 -1.251,0.608 -2.071,0.214 l 0.296,-0.274 c -0.448,-0.353 -1.252,1.403 -1.701,1.532 -0.099,0.09 0.154,0.144 0.291,0.211 -1.177,0.607 -0.153,-0.629 -1.03,-0.776 -0.162,0.34 0.208,0.863 -0.382,0.926 -0.294,0.273 -1.712,-1.101 -2.518,-0.451 0.177,-0.261 0.353,-0.522 -0.054,-0.718 -0.625,-0.093 -1.689,0.987 -2.253,0.164 -0.08,0.071 -0.109,0.14 -0.113,0.204 -0.478,-0.212 -1.552,-0.352 -1.839,-0.799 -0.441,1.657 -2.969,-0.805 -2.958,0.723 l -1.469,-0.082 0.038,0.156 c -0.938,0.101 -1.27,-0.265 -1.6,-0.633 -0.217,0.105 -0.059,0.248 -0.04,0.328 -1.372,0.307 -1.509,0.243 -2.658,-0.519 l -0.12,0.496 c -0.312,-0.288 -1.984,0.777 -3.329,0.199 0.013,0.057 0.041,0.153 0.148,0.223 -1.514,-0.582 -3.624,1.375 -4.179,-0.431 l -0.999,-0.444 c 1.293,-0.141 -0.192,-0.783 0.34,-1.084 -0.509,-0.105 -1.314,0.545 -0.689,0.638 l 0.097,-0.091 c 0.23,0.941 -1.605,0.334 -1.571,0.975 -2.543,-0.047 -5.022,0.474 -7.403,0.514 l 0.274,-0.731 -0.831,0.042 c -0.218,0.171 -0.293,0.572 0.3,0.542 -0.312,0.414 -0.994,-0.348 -1.011,-0.506 -1.16,0.296 0.453,0.852 0.098,0.87 l -0.484,-0.055 0.11,-0.085 c -0.393,-0.299 -0.427,-0.616 -1.14,-0.58 -0.45,0.147 -0.231,0.451 -0.408,0.48 0.001,0.051 -0.06,0.076 -0.273,0.02 l -1.047,0.063 0.419,-0.577 c -0.464,-0.285 -0.984,0.03 -0.502,-0.624 -0.709,1.008 -3.904,0.362 -4.339,0.675 -0.651,-0.422 -1.291,-0.414 -2.086,-0.363 0.197,-0.12 0.315,-0.769 -0.37,-0.689 0.25,1.339 -1.255,0.581 -1.809,1.545 0.495,-0.639 -1.948,-0.159 -1.172,-1.066 -0.571,0.109 -0.034,0.501 -0.469,0.817 -1.36,-0.519 -2.999,0.337 -4.681,0.163 -0.027,-0.176 0.256,-0.446 -0.106,-0.707 l -0.888,0.878 c -0.333,-0.085 -0.306,-1.014 -0.913,-0.404 0.085,-0.148 0.214,-0.371 -0.009,-0.428 -3.296,0.858 -6.735,-0.701 -10.082,0.909 0.454,-0.34 0.151,-0.374 -0.195,-0.387 0.225,-0.082 -0.006,-0.435 0.039,-0.673 l -1.401,0.662 c -0.256,-0.661 -1.503,-0.045 -1.649,-0.677 l 0.444,0.114 c -0.59,-0.746 0.825,-1.659 0.739,-2.617 0.661,0.848 1.742,-1.257 2.826,-0.042 0.24,-0.196 -0.204,-0.309 -0.076,-0.531 0.276,0.41 0.608,0.496 1.223,0.312 l -0.071,-0.102 c 1.729,0.101 2.469,-0.304 4.411,-0.574 l -0.144,0.474 c 0.417,-0.064 0.505,-0.212 0.7,-0.33 0.479,0.717 -1.172,0.04 -0.735,0.832 0.553,-0.964 2.941,-0.015 3.315,-1.11 0.642,-0.006 -0.188,0.548 0.453,0.541 l 0.17,-0.296 0.163,0.382 c 0.42,-0.062 0.632,-0.433 0.648,-0.684 -0.102,0.03 -0.29,-0.071 -0.399,-0.092 0.545,-0.349 1.538,0.119 1.725,0.005 l -0.616,0.183 c 1.751,0.278 3.89,-0.112 5.581,0.491 l -0.128,0.223 c 1.292,0.413 1.034,-0.245 2.453,-0.054 l -0.052,-0.053 c 0.285,0.222 0.663,0.335 1.051,0.309 -0.357,-0.261 0.674,-0.509 0.204,-0.799 1.402,0.445 0.694,0.35 1.619,1.18 l 0.213,-0.371 c 0.316,0.336 0.342,0.513 1.05,0.609 -0.581,-0.318 0.452,-0.565 -0.198,-0.986 1.486,-0.81 2.207,0.818 2.89,-0.367 0.682,1.026 -1.288,0.57 -0.905,0.789 -0.32,0.336 0.564,0.768 1.031,0.664 0.474,-0.022 0.806,-1.312 2.001,-1.293 -0.119,0.005 -0.126,-0.072 -0.246,-0.068 0.448,-0.262 0.876,0.354 1.425,-0.071 0.308,0.621 0.712,-0.036 0.801,0.756 l -1.096,-0.183 c 0.621,0.207 1.203,1.132 2.227,0.683 -0.08,-0.159 -0.384,-0.369 -0.594,-0.486 0.3,-0.233 0.577,0.154 0.887,-0.085 -0.088,-0.792 -1.332,-0.173 -1.997,-0.776 0.321,-0.334 1.259,0.574 0.925,-0.285 0.48,1.091 1.176,-0.137 1.986,0.696 l -0.054,-0.475 c 0.128,0.075 0.394,0.299 0.629,0.286 l -0.427,-0.615 c 0.656,0.525 1.263,-0.459 1.891,-0.173 -1.316,-0.014 -0.295,0.571 -0.852,0.918 1.623,0.636 0.934,-1.241 2.75,-1.014 -0.246,-0.067 -0.923,0.286 -0.539,0.505 0.346,-0.097 0.803,-0.279 1.015,-0.529 1.203,0.1 -0.185,0.488 0.327,0.78 0.41,-0.578 0.592,0.236 1.119,0.421 l 0.004,-0.482 c 1.371,-0.311 0.363,1.005 1.598,0.631 l -0.522,-0.669 0.644,0.173 -0.133,-0.549 c 0.7,0.407 0.918,0.302 1.605,0.148 -0.16,0.34 0.089,0.875 0.697,0.891 0.414,-0.287 -0.233,-0.459 0.629,-0.391 -0.195,-0.301 -0.408,-0.68 -0.783,-0.236 -0.038,-0.156 -0.191,-0.303 -0.231,-0.457 0.446,-0.33 1.121,-0.076 1.433,-0.071 -0.119,0.018 -0.263,0.043 -0.337,0.112 l 1.248,0.669 c 0.197,-0.181 0.041,-0.327 -0.114,-0.47 0.253,0.053 0.428,0.274 0.799,0.316 -0.095,-0.392 -0.072,-0.796 -0.598,-0.982 l 1.188,0.436 c 0.08,-0.17 0.611,-0.469 0.456,-0.614 0.659,-0.23 1.617,0.762 2.491,0.457 0.046,0.077 0.137,0.149 0.324,0.205 0.821,-0.088 1.549,-0.57 2.522,-0.032 l 0.553,-0.703 c 0.762,0.159 -0.748,0.886 0.521,1.151 0.9,0.224 0.336,-0.599 0.651,-0.795 0.447,0.354 1.224,1.075 2.051,0.502 -0.274,-0.131 -0.489,-0.027 -0.744,-0.08"
       fill="#ed1c24"
       id="path313" />
    <path
       transform="matrix(1,0,0,-1,-215.1573,446.4638)"
       d="m 553.6719,230.4229 c -0.051,0.082 -0.065,0.172 -0.077,0.263 -0.072,-0.081 -0.073,-0.175 0.077,-0.263"
       fill="#ed1c24"
       id="path315" />
    <path
       transform="matrix(1,0,0,-1,-215.1573,446.4638)"
       d="m 525.7441,229.3564 -0.029,0.006 c -0.016,-0.029 -0.024,-0.059 -0.029,-0.087 z"
       fill="#ed1c24"
       id="path317" />
    <path
       transform="matrix(1,0,0,-1,-215.1573,446.4638)"
       d="m 582.8867,230.1426 c -0.174,0.069 -0.271,0.157 -0.335,0.249 -0.01,-0.118 0.069,-0.218 0.335,-0.249"
       fill="#ed1c24"
       id="path319" />
    <path
       transform="matrix(1,0,0,-1,-215.1573,446.4638)"
       d="m 600.4346,235.0527 -0.54,-0.126 c 0.262,0.024 0.354,-0.081 0.486,-0.158 -0.011,0.113 -0.115,0.276 0.054,0.284"
       fill="#ed1c24"
       id="path321" />
    <path
       transform="matrix(1,0,0,-1,-215.1573,446.4638)"
       d="m 605.1279,232.0674 c 0.079,0.059 0.168,0.006 0.245,0.066 l -0.021,0.225 c -0.336,-0.016 -0.572,-0.195 -0.224,-0.291"
       fill="#ed1c24"
       id="path323" />
    <path
       transform="matrix(1,0,0,-1,-215.1573,446.4638)"
       d="m 600.9355,233.4502 c 0.043,-0.406 0.382,-0.269 0.761,-0.193 -0.023,-0.002 -0.044,-0.005 -0.068,0 0.113,0.568 -0.292,0.38 -0.693,0.193"
       fill="#ed1c24"
       id="path325" />
    <path
       transform="matrix(1,0,0,-1,-215.1573,446.4638)"
       d="m 601.7842,233.2705 c 0.116,0.02 0.235,0.029 0.35,0.01 0.045,0.228 -0.142,0.048 -0.35,-0.01"
       fill="#ed1c24"
       id="path327" />
    <path
       transform="matrix(1,0,0,-1,-215.1573,446.4638)"
       d="m 597.0322,234.502 c 0.18,-0.104 0.113,0.519 0.215,0.354 0.2,0.516 -1.197,-0.625 -0.215,-0.354"
       fill="#ed1c24"
       id="path329" />
    <path
       transform="matrix(1,0,0,-1,-215.1573,446.4638)"
       d="m 601.2422,232.1123 -0.136,0.502 -0.212,-0.404 z"
       fill="#ed1c24"
       id="path331" />
    <path
       transform="matrix(1,0,0,-1,-215.1573,446.4638)"
       d="m 598.252,232.4805 0.604,-0.139 c -0.008,0.084 0.069,0.134 0.163,0.171 -0.372,0.017 -0.782,0.116 -0.767,-0.032"
       fill="#ed1c24"
       id="path333" />
    <path
       transform="matrix(1,0,0,-1,-215.1573,446.4638)"
       d="m 599.0186,232.5127 c 0.194,-0.01 0.38,0.001 0.487,0.083 -0.104,-0.005 -0.331,-0.022 -0.487,-0.083"
       fill="#ed1c24"
       id="path335" />
    <path
       transform="matrix(1,0,0,-1,-215.1573,446.4638)"
       d="m 600.415,231.9619 -0.179,0.105 -0.427,0.037 z"
       fill="#ed1c24"
       id="path337" />
    <path
       transform="matrix(1,0,0,-1,-215.1573,446.4638)"
       d="m 591.7461,232.5771 -0.66,-0.144 c -0.068,-0.171 0.112,-0.276 0.358,-0.208 0.158,0.12 0.404,0.186 0.302,0.352"
       fill="#ed1c24"
       id="path339" />
    <path
       transform="matrix(1,0,0,-1,-215.1573,446.4638)"
       d="m 593.7432,231.2051 c -0.178,0.104 -0.19,0.216 -0.291,0.381 l -0.02,-0.621 z"
       fill="#ed1c24"
       id="path341" />
    <path
       transform="matrix(1,0,0,-1,-215.1573,446.4638)"
       d="m 591.8174,231.0596 c -0.065,-0.172 -0.958,-0.494 -0.121,-0.455 0.066,0.171 0.728,0.314 0.121,0.455"
       fill="#ed1c24"
       id="path343" />
    <path
       transform="matrix(1,0,0,-1,-215.1573,446.4638)"
       d="m 581.8652,231.8457 0.168,0.008 -0.023,1.018 z"
       fill="#ed1c24"
       id="path345" />
    <path
       transform="matrix(1,0,0,-1,-215.1573,446.4638)"
       d="m 573.0937,229.4092 c 0.783,-0.244 0.187,0.629 0.894,0.324 0.183,0.24 -0.579,0.248 -0.39,0.456 -0.473,-0.254 -0.721,-0.11 -0.504,-0.78"
       fill="#ed1c24"
       id="path347" />
    <path
       transform="matrix(1,0,0,-1,-215.1573,446.4638)"
       d="m 573.5977,230.1895 c 0.076,0.04 0.156,0.089 0.241,0.155 -0.137,-0.064 -0.201,-0.113 -0.241,-0.155"
       fill="#ed1c24"
       id="path349" />
    <path
       transform="matrix(1,0,0,-1,-215.1573,446.4638)"
       d="m 474.5879,234.5596 -0.503,0.213 0.325,-0.343 z"
       fill="#ed1c24"
       id="path351" />
    <path
       transform="matrix(1,0,0,-1,-215.1573,446.4638)"
       d="m 473.6221,233.8037 -0.119,0.649 -0.302,-0.587 c 0.114,0.029 0.334,0.084 0.421,-0.062"
       fill="#ed1c24"
       id="path353" />
    <path
       transform="matrix(1,0,0,-1,-215.1573,446.4638)"
       d="m 542.3955,228.6143 0.038,0.156 c -0.078,0.169 -0.195,0.182 -0.432,0.208 z"
       fill="#ed1c24"
       id="path355" />
    <path
       transform="matrix(1,0,0,-1,-215.1573,446.4638)"
       d="m 535.5693,229.1006 0.117,-0.014 -0.219,0.587 z"
       fill="#ed1c24"
       id="path357" />
    <path
       transform="matrix(1,0,0,-1,-215.1573,446.4638)"
       d="m 529.8408,228.3516 c 0.233,-0.024 0.509,0.106 0.743,0.081 -0.51,-0.105 -0.806,0.65 -0.743,-0.081"
       fill="#ed1c24"
       id="path359" />
  </g>
</svg>
