<?xml version="1.0" encoding="UTF-8" standalone="no"?>
<!-- Generator: Adobe Illustrator 26.0.3, SVG Export Plug-In . SVG Version: 6.00 Build 0)  -->

<svg
   version="1.0"
   id="Layer_1"
   x="0px"
   y="0px"
   viewBox="0 0 200 200"
   xml:space="preserve"
   sodipodi:docname="university_of_twente_logo.svg"
   width="200"
   height="200"
   inkscape:version="1.1.2 (0a00cf5339, 2022-02-04)"
   xmlns:inkscape="http://www.inkscape.org/namespaces/inkscape"
   xmlns:sodipodi="http://sodipodi.sourceforge.net/DTD/sodipodi-0.dtd"
   xmlns="http://www.w3.org/2000/svg"
   xmlns:svg="http://www.w3.org/2000/svg"><defs
   id="defs43" /><sodipodi:namedview
   id="namedview41"
   pagecolor="#ffffff"
   bordercolor="#666666"
   borderopacity="1.0"
   inkscape:pageshadow="2"
   inkscape:pageopacity="0.0"
   inkscape:pagecheckerboard="0"
   showgrid="false"
   inkscape:zoom="3.0288462"
   inkscape:cx="145.10476"
   inkscape:cy="104"
   inkscape:window-width="2560"
   inkscape:window-height="1316"
   inkscape:window-x="0"
   inkscape:window-y="0"
   inkscape:window-maximized="1"
   inkscape:current-layer="Layer_1"
   width="203px" />
<path
   d="m 27.168159,89.936961 c 0,7.2 -3,9.5 -8.6,9.5 -6.4,0 -8.5999999,-3.2 -8.5999999,-9.9 v -18.1 h 4.1999999 v 17.9 c 0,2.4 -0.2,7 4.4,7 3.8,0 4.4,-2.7 4.4,-6.8 v -18 h 4.2 z"
   id="path2" />
<path
   d="m 141.46815,135.13696 -8.3,-23.8 v 23.8 h -3.6 v -27.6 h 6.2 l 8.3,23.8 v -23.8 h 3.8 v 27.6 z"
   id="path4" />
<path
   d="m 44.568159,99.036961 -8.3,-23.8 v 23.8 h -3.6 v -27.6 h 6.2 l 8.3,23.8 v -23.8 h 3.8 v 27.6 z"
   id="path6" />
<path
   d="m 57.468159,99.036961 v -27.6 h 4.3 v 27.6 z"
   id="path8" />
<path
   d="m 148.26815,99.036961 v -27.6 h 4.3 v 27.6 z"
   id="path10" />
<path
   d="m 77.168159,99.036961 h -5 l -7,-27.6 h 4.4 l 5.2,23.7 5.4,-23.7 h 4.2 z"
   id="path12" />
<path
   d="m 87.768159,99.036961 v -27.6 h 13.700001 v 3.3 h -9.400001 v 8.4 h 8.800001 v 3.2 h -8.800001 v 9.4 h 9.700001 v 3.3 z"
   id="path14" />
<path
   d="m 110.66815,135.13696 v -27.6 h 13.6 v 3.3 h -9.4 v 8.4 h 8.8 v 3.2 h -8.8 v 9.4 h 9.7 v 3.3 z"
   id="path16" />
<path
   d="m 171.76815,135.13696 v -27.6 h 13.6 v 3.3 h -9.4 v 8.4 h 8.8 v 3.2 h -8.8 v 9.4 h 9.7 v 3.3 z"
   id="path18" />
<path
   d="m 118.06815,99.036961 c -0.3,-2.4 -0.4,-4.8 -0.4,-7.2 -0.1,-2.1 -0.4,-3.4 -0.8,-4 -0.4,-0.6 -1.7,-1.1 -3.5,-1.1 h -2.6 v 12.3 h -4.3 v -27.6 h 7.9 c 4.6,0 7.9,1.1 7.9,7 0,3.7 -1.5,5.9 -4.5,6.7 1.3,0 2.5,0.6 3.2,1.6 0.7,1.4 1,2.9 0.9,4.4 0,2.6 0.2,5.3 0.6,7.9 z m -0.1,-20.3 c 0,-3.2 -1.7,-4.1 -4.4,-4.1 h -2.9 v 8.8 h 2.2 c 3.8,0.1 5.1,-0.9 5.1,-4.7 z"
   id="path20" />
<path
   d="m 143.06815,92.036961 c 0,4.9 -2.7,7.4 -8.1,7.4 -6.1,0 -8.2,-2.4 -8.2,-8.2 v -0.3 h 4.4 v 0.4 c 0,3.3 0.8,5.1 3.8,5.1 2.5,0 3.8,-1.3 3.8,-3.9 0,-1.8 -1,-3.4 -2.6,-4.2 -0.6,-0.4 -1.4,-0.9 -2.3,-1.4 -4.1,-2.5 -6.6,-4.2 -6.6,-8.6 0,-4.4 2.8,-7.2 8.1,-7.2 5,0 7.5,2.3 7.5,6.9 v 1 h -4.3 v -0.7 c 0,-2.7 -1.2,-4 -3.5,-4 -2.1,0 -3.5,1.2 -3.5,3.7 0,2.7 1.9,3.6 3.8,4.8 0.6,0.4 1.3,0.8 2,1.2 4.2,2.6 5.7,3.8 5.7,8 z"
   id="path22" />
<path
   d="m 166.76815,74.736961 v 24.3 h -4.3 v -24.3 h -6.4 v -3.3 h 17 v 3.3 z"
   id="path24" />
<path
   d="m 67.868159,110.93696 v 24.3 h -4.3 v -24.3 h -6.4 v -3.3 h 17 v 3.3 z"
   id="path26" />
<path
   d="m 161.96815,110.93696 v 24.3 h -4.3 v -24.3 h -6.4 v -3.3 h 17 v 3.3 z"
   id="path28" />
<path
   d="m 101.16816,135.13696 h -4.999999 l -4.300002,-23.1 -4.8,23.1 h -5 l -5.9,-27.6 h 4.5 l 4.1,23 4.7,-23 h 5.000002 l 4.3,23 4.399989,-23 h 4 z"
   id="path30" />
<path
   d="m 193.76815,133.53696 c 0,1.2 -1,2.2 -2.2,2.2 -1.2,0 -2.2,-1 -2.2,-2.2 0,-1.2 1,-2.2 2.2,-2.2 v 0 c 1.2,-0.1 2.2,0.9 2.2,2.2 z"
   id="path32" />
<path
   d="m 185.46815,88.536961 v 10.5 h -4.3 v -10.5 l -7.2,-17 h 4.7 l 4.9,13.2 5.1,-13.2 h 4.4 z"
   id="path34" />
<path
   d="m 27.568159,121.63696 c 0,5 -0.4,8.3 -1.3,10.1 -1.2,2.6 -3.8,3.9 -7.7,3.9 -3.7,0 -6.1,-1.3 -7.4,-3.8 -0.6,-1.3 -0.9,-2.7 -1.1,-4.2 -0.1999999,-2 -0.2999999,-4 -0.1999999,-6.1 -0.1,-2.4 0.1,-4.8 0.2999999,-7.2 0.2,-1.8 0.9,-3.5 2,-4.9 1.4,-1.7 3.6,-2.5 6.5,-2.5 2.9,0 5.1,0.8 6.5,2.3 1.1,1.4 1.8,3.1 2,4.9 0.4,2.5 0.5,5 0.4,7.5 z m -4.4,-0.5 c 0.1,-2.3 -0.1,-4.6 -0.3,-6.9 -0.5,-2.7 -1.9,-4 -4.1,-4 -2.2,0 -3.6,1.4 -4.2,4.2 -0.1,0.8 -0.2,1.6 -0.2,2.4 0,1.1 -0.1,2.6 -0.1,4.3 0,1.7 0,3 0.1,4.2 0,0.9 0.1,1.7 0.2,2.6 0.1,1.2 0.5,2.4 1.2,3.4 0.8,0.8 1.9,1.3 3,1.2 2.3,0 3.6,-1.4 4.1,-4.3 0.1,-0.9 0.2,-1.7 0.2,-2.6 0.1,-1.2 0.1,-2.7 0.1,-4.5 z"
   id="path36" />
<path
   d="m 37.268159,110.83696 v 8.5 h 8.2 v 3.2 h -8.2 v 12.6 h -4.2 v -27.6 h 12.8 v 3.3 z"
   id="path38" />
</svg>
